<svg width="60" height="28" viewBox="0 0 60 28" fill="none" xmlns="http://www.w3.org/2000/svg">
<path d="M14.389 2.5127C12.0655 2.5127 9.83643 3.43916 8.19351 5.08877L2.83196 10.4722C1.18904 12.1212 0.266234 14.3577 0.265625 16.6903C0.265625 21.5496 4.18818 25.4868 9.02684 25.4868C11.3503 25.4868 13.5788 24.5603 15.2223 22.9107L29.7377 8.33809C30.7664 7.30449 32.2566 6.88204 33.6718 7.22231C35.0871 7.56198 36.2248 8.61627 36.6758 10.0054L40.0865 6.58134C38.4782 4.04605 35.6909 2.51148 32.6967 2.5127C30.3732 2.5127 28.1441 3.43916 26.5012 5.08877L11.9858 19.662C10.3514 21.3025 7.70228 21.3025 6.06789 19.6614C4.4341 18.0209 4.4341 15.3614 6.06849 13.7209L11.43 8.33748C12.4588 7.30388 13.9489 6.88144 15.3642 7.22171C16.7794 7.56198 17.9171 8.61627 18.3682 10.0054L21.7788 6.58195C20.1706 4.04665 17.3833 2.51148 14.389 2.5127Z" fill="#FBFBFB"/>
<path d="M30.2935 19.6614C29.2648 20.695 27.7753 21.1174 26.36 20.7778C24.9441 20.4375 23.8065 19.3838 23.3554 17.9947L19.9454 21.4181C21.5536 23.9534 24.3403 25.488 27.3346 25.4868C29.658 25.4868 31.8865 24.5603 33.5301 22.9107L48.0454 8.33748C49.6798 6.69699 52.329 6.69699 53.9634 8.33748C55.5971 9.97857 55.5971 12.638 53.9628 14.2785L48.6012 19.662C47.5719 20.6956 46.0823 21.118 44.6671 20.7778C43.2512 20.4375 42.1141 19.3832 41.6631 17.9941L38.2525 21.4181C39.8607 23.9534 42.648 25.4886 45.6416 25.4868C47.9657 25.4868 50.1942 24.5603 51.8377 22.9107L57.1993 17.5272C58.8422 15.8776 59.765 13.6412 59.7656 11.3086C59.7656 6.44986 55.8431 2.5127 51.0044 2.5127C48.6809 2.5127 46.4518 3.43916 44.8089 5.08877L30.2935 19.6614Z" fill="#FBFBFB"/>
</svg>
