<svg width="119" height="28" viewBox="0 0 119 28" fill="none" xmlns="http://www.w3.org/2000/svg">
<path d="M36.0583 20.3H44.4247V17.78H39.0319V8.28802H36.0583V20.3ZM49.3807 18.62C48.1886 18.62 47.567 17.5784 47.567 16.016C47.567 14.4536 48.1886 13.3952 49.3814 13.3952C50.5742 13.3952 51.2126 14.4536 51.2126 16.016C51.2126 17.5784 50.5735 18.62 49.3807 18.62ZM49.3982 20.5688C52.1702 20.5688 53.9846 18.6032 53.9846 16.016C53.9846 13.4288 52.1702 11.4632 49.3982 11.4632C46.643 11.4632 44.795 13.4288 44.795 16.016C44.795 18.6032 46.643 20.5688 49.3982 20.5688ZM58.7824 23.2736C60.0592 23.2736 61.1848 22.988 61.9408 22.316C62.6296 21.6944 63.0832 20.7536 63.0832 19.46V11.6984H60.4624V12.6224H60.4288C59.9248 11.9 59.152 11.4464 58.0096 11.4464C55.876 11.4464 54.3976 13.2272 54.3976 15.7472C54.3976 18.3848 56.1952 19.8296 58.1272 19.8296C59.1688 19.8296 59.824 19.4096 60.328 18.8384H60.3952V19.6952C60.3952 20.7368 59.908 21.3416 58.7488 21.3416C57.8416 21.3416 57.388 20.9552 57.2368 20.5016H54.5824C54.8512 22.2992 56.4136 23.2736 58.7824 23.2736ZM58.7656 17.7968C57.7408 17.7968 57.0688 16.9568 57.0688 15.6632C57.0688 14.3528 57.7408 13.5128 58.7656 13.5128C59.908 13.5128 60.5128 14.4872 60.5128 15.6464C60.5128 16.856 59.9584 17.7968 58.7656 17.7968ZM68.4718 18.62C67.279 18.62 66.6574 17.5784 66.6574 16.016C66.6574 14.4536 67.279 13.3952 68.4718 13.3952C69.6646 13.3952 70.303 14.4536 70.303 16.016C70.303 17.5784 69.6646 18.62 68.4718 18.62ZM68.4886 20.5688C71.2606 20.5688 73.075 18.6032 73.075 16.016C73.075 13.4288 71.2606 11.4632 68.4886 11.4632C65.7334 11.4632 63.8854 13.4288 63.8854 16.016C63.8854 18.6032 65.7334 20.5688 68.4886 20.5688ZM73.8751 20.3H76.6135V11.6984H73.8751V20.3ZM73.8751 10.5056H76.6135V8.28802H73.8751V10.5056ZM77.8014 23.1399H80.5398V19.4089H80.5734C81.111 20.1313 81.9006 20.5681 83.0094 20.5681C85.2606 20.5681 86.7558 18.7873 86.7558 15.9985C86.7558 13.4113 85.3614 11.4457 83.0766 11.4457C81.9006 11.4457 81.0606 11.9665 80.4726 12.7393H80.4222V11.6977H77.8014V23.1399ZM82.3038 18.452C81.1278 18.452 80.4558 17.4944 80.4558 16.1C80.4558 14.7056 81.0606 13.6472 82.2534 13.6472C83.4294 13.6472 83.9838 14.6216 83.9838 16.1C83.9838 17.5616 83.3454 18.452 82.3038 18.452ZM91.2141 20.5688C93.4653 20.5688 95.1285 19.5944 95.1285 17.7128C95.1285 15.512 93.3477 15.1256 91.8357 14.8736C90.7437 14.672 89.7693 14.588 89.7693 13.9832C89.7693 13.4456 90.2901 13.1936 90.9621 13.1936C91.7181 13.1936 92.2389 13.4288 92.3397 14.2016H94.8597C94.7253 12.5048 93.4149 11.4464 90.9789 11.4464C88.9461 11.4464 87.2661 12.3872 87.2661 14.2016C87.2661 16.2176 88.8621 16.6208 90.3573 16.8728C91.4997 17.0744 92.5413 17.1584 92.5413 17.9312C92.5413 18.4856 92.0205 18.788 91.1973 18.788C90.2901 18.788 89.7189 18.368 89.6181 17.5112H87.0309C87.1149 19.4096 88.6941 20.5688 91.2141 20.5688ZM98.8483 20.552C100.041 20.552 100.797 20.0816 101.419 19.2416H101.469V20.3H104.09V11.6984H101.351V16.5039C101.351 17.5287 100.78 18.2343 99.8395 18.2343C98.9659 18.2343 98.5459 17.7135 98.5459 16.7727V11.6991H95.8243V17.3439C95.8243 19.2591 96.8659 20.552 98.8483 20.552ZM105.281 20.3H108.02V15.4784C108.02 14.4536 108.524 13.7312 109.38 13.7312C110.204 13.7312 110.59 14.2688 110.59 15.1928V20.3H113.328V15.4784C113.328 14.4536 113.816 13.7312 114.689 13.7312C115.512 13.7312 115.899 14.2688 115.899 15.1928V20.3H118.637V14.7056C118.637 12.7736 117.663 11.4464 115.714 11.4464C114.605 11.4464 113.681 11.9168 113.009 12.9584H112.976C112.539 12.0344 111.682 11.4464 110.556 11.4464C109.313 11.4464 108.49 12.0344 107.952 12.9248H107.902V11.6984H105.281V20.3Z" fill="#FBFBFB"/>
<path d="M0.234375 14C0.234375 6.2685 6.50287 0 14.2344 0C21.9666 0 28.2344 6.2685 28.2344 14C28.2344 21.7322 21.9666 28 14.2344 28C6.50287 28 0.234375 21.7322 0.234375 14ZM16.3953 10.8171C17.2696 9.9428 17.5314 8.6282 17.0582 7.4865C16.5857 6.3441 15.4713 5.5993 14.2344 5.5993C12.9982 5.5993 11.8838 6.3441 11.4113 7.4865C10.9381 8.6282 11.1999 9.9428 12.0742 10.8171L14.2344 12.978L16.3953 10.8171ZM17.4173 16.1609C18.2916 17.0352 19.6062 17.2963 20.7479 16.8238C21.8903 16.3506 22.6344 15.2362 22.6344 14C22.6344 12.7638 21.8903 11.6494 20.7479 11.1762C19.6062 10.7037 18.2916 10.9648 17.4173 11.8391L15.2571 14L17.4173 16.1609ZM16.3953 21.5054C17.5888 20.3119 17.5888 18.3771 16.3953 17.1836L14.2344 15.0227L12.0742 17.1836C10.9164 18.3827 10.9332 20.2888 12.1113 21.4676C13.2901 22.6464 15.1962 22.6632 16.3953 21.5054ZM11.0515 16.1609L13.2124 14L11.0515 11.8391C9.85377 10.6701 7.93927 10.682 6.75557 11.865C5.57257 13.0487 5.56067 14.9632 6.72967 16.1609C7.92317 17.3544 9.85797 17.3544 11.0515 16.1609Z" fill="#FBFBFB"/>
</svg>
