<svg width="81" height="28" viewBox="0 0 81 28" fill="none" xmlns="http://www.w3.org/2000/svg">
<path d="M12.7873 18.4218V23.3337H7.71357C3.89262 23.3337 0.794922 20.0349 0.794922 15.9653V4.66699H5.40755V15.9653C5.40755 17.322 6.44011 18.4218 7.71357 18.4218H12.7873ZM21.5509 9.57947C19.2581 9.57947 17.3993 11.5587 17.3993 14.0006C17.3993 16.4419 19.2581 18.4218 21.5509 18.4218C23.8431 18.4218 25.7018 16.4419 25.7018 14.0006C25.7018 11.5587 23.8431 9.57947 21.5509 9.57947ZM12.7873 14.0006C12.7873 8.84586 16.7111 4.66699 21.5509 4.66699C26.3906 4.66699 30.3144 8.84586 30.3144 14.0006C30.3144 19.1548 26.3906 23.3337 21.5509 23.3337C16.7111 23.3337 12.7873 19.1548 12.7873 14.0006ZM71.3647 9.57947C69.0719 9.57947 67.2131 11.5587 67.2131 14.0006C67.2131 16.4419 69.0719 18.4218 71.3647 18.4218C73.6569 18.4218 75.5156 16.4419 75.5156 14.0006C75.5156 11.5587 73.6569 9.57947 71.3647 9.57947ZM62.6011 14.0006C62.6011 8.84586 66.5249 4.66699 71.3647 4.66699C76.2044 4.66699 80.1283 8.84586 80.1283 14.0006C80.1283 19.1548 76.2044 23.3337 71.3647 23.3337C66.5249 23.3337 62.6011 19.1548 62.6011 14.0006ZM52.9148 4.66699C57.7545 4.66699 61.6783 8.84586 61.6783 14.0006V14.6201C61.6783 16.1508 61.3248 17.6583 60.6492 19.0089C60.6492 19.0089 59.4289 20.5337 58.4956 21.467C57.5623 22.4003 55.5226 22.9131 55.5226 22.9131C54.6993 23.1866 53.8231 23.3337 52.9148 23.3337H40.0002C35.1605 23.3337 31.2366 19.1548 31.2366 14.0006C31.2366 8.84586 35.1605 4.66699 40.0002 4.66699H52.9148ZM57.0663 14.0006C57.0663 11.5587 55.2076 9.57947 52.9148 9.57947H40.0002C37.7074 9.57947 35.8493 11.5587 35.8493 14.0006C35.8493 16.4419 37.7074 18.4218 40.0002 18.4218H52.9148C55.1955 18.4224 57.049 16.4633 57.0663 14.0348V14.0006Z" fill="#FBFBFB"/>
</svg>
