<svg width="79" height="28" viewBox="0 0 79 28" fill="none" xmlns="http://www.w3.org/2000/svg">
<path d="M5.02655 5.9249V23.2286H0.394531V5.9249H5.02655ZM7.34285 5.9249H17.1863C20.3834 5.9249 22.9758 8.50724 22.9758 11.6926C22.9758 14.8786 20.3834 17.4603 17.1863 17.4603H11.9749V23.2286H7.34285V5.9249ZM11.9749 12.8466H17.1863C17.8247 12.8466 18.3432 12.3305 18.3438 11.6926C18.3438 11.0559 17.8259 10.5392 17.1863 10.5392H11.9749V12.8466ZM40.3463 5.9249V14.865C40.3463 16.9353 42.0312 18.6143 44.1099 18.6143C46.1885 18.6143 47.8734 16.9353 47.8734 14.865V5.9249H52.5054V14.865C52.5054 19.484 48.7466 23.2286 44.1099 23.2286C39.4731 23.2286 35.7143 19.484 35.7143 14.865V5.9249H40.3463Z" fill="#FBFBFB"/>
<path d="M24.7134 14C24.7134 9.54006 28.3421 5.9249 32.8192 5.9249H33.9768V10.5392H32.8192C30.9002 10.5392 29.3454 12.0887 29.3454 14V14.5765C29.3454 19.3545 25.4565 23.2286 20.6601 23.2286H20.0808V18.6143H20.6601C22.8984 18.6143 24.7134 16.8064 24.7134 14.5765V14Z" fill="#FBFBFB"/>
<path d="M78.5612 6.50191C78.5606 6.96127 78.3773 7.40112 78.0516 7.72569C77.7258 8.05026 77.2842 8.23234 76.8237 8.23234C76.3631 8.23234 75.9215 8.05026 75.5964 7.72569C75.2706 7.40112 75.0873 6.96127 75.0867 6.50191C75.0873 6.04256 75.2706 5.60212 75.5964 5.27755C75.9215 4.95298 76.3631 4.77089 76.8237 4.77149C77.2842 4.77089 77.7258 4.95298 78.0516 5.27755C78.3773 5.60212 78.5606 6.04256 78.5612 6.50191ZM57.4792 23.2286L59.6897 14.0083L61.3332 19.5549C62.3128 22.8632 67.0169 22.8632 67.9971 19.5549L69.6401 14.0089L71.85 23.2286H76.6126L73.137 8.73072C72.3105 5.28228 67.4331 5.15458 66.4257 8.55455L64.6652 14.4996L62.9034 8.55514C61.8966 5.15517 57.0192 5.28287 56.1921 8.73072L52.7171 23.2286H57.4792Z" fill="#FBFBFB"/>
</svg>
