<svg width="118" height="28" viewBox="0 0 118 28" fill="none" xmlns="http://www.w3.org/2000/svg">
<path d="M35.0287 19.6198H43.3949V17.0999H38.0022V7.60811H35.0287V19.6198ZM48.3507 17.9399C47.1587 17.9399 46.5371 16.8983 46.5371 15.3359C46.5371 13.7736 47.1587 12.7152 48.3514 12.7152C49.5442 12.7152 50.1826 13.7736 50.1826 15.3359C50.1826 16.8983 49.5435 17.9399 48.3507 17.9399ZM48.3682 19.8886C51.1402 19.8886 52.9545 17.9231 52.9545 15.3359C52.9545 12.7488 51.1402 10.7832 48.3682 10.7832C45.6131 10.7832 43.7652 12.7488 43.7652 15.3359C43.7652 17.9231 45.6131 19.8886 48.3682 19.8886ZM57.7522 22.5933C59.029 22.5933 60.1546 22.3077 60.9105 21.6358C61.5993 21.0142 62.0529 20.0734 62.0529 18.7798V11.0184H59.4322V11.9424H59.3986C58.8946 11.22 58.1218 10.7664 56.9794 10.7664C54.8459 10.7664 53.3675 12.5472 53.3675 15.0671C53.3675 17.7047 55.1651 19.1494 57.097 19.1494C58.1386 19.1494 58.7938 18.7294 59.2978 18.1582H59.365V19.015C59.365 20.0566 58.8778 20.6614 57.7186 20.6614C56.8114 20.6614 56.3578 20.275 56.2066 19.8214H53.5523C53.8211 21.619 55.3835 22.5933 57.7522 22.5933ZM57.7354 17.1167C56.7106 17.1167 56.0387 16.2767 56.0387 14.9831C56.0387 13.6728 56.7106 12.8328 57.7354 12.8328C58.8778 12.8328 59.4826 13.8072 59.4826 14.9663C59.4826 16.1759 58.9282 17.1167 57.7354 17.1167ZM67.4421 17.9399C66.2486 17.9399 65.627 16.8983 65.627 15.3359C65.627 13.7736 66.2486 12.7152 67.4421 12.7152C68.6341 12.7152 69.2725 13.7736 69.2725 15.3359C69.2725 16.8983 68.6341 17.9399 67.4421 17.9399ZM67.4582 19.8886C70.2301 19.8886 72.0445 17.9231 72.0445 15.3359C72.0445 12.7488 70.2301 10.7832 67.4582 10.7832C64.703 10.7832 62.8551 12.7488 62.8551 15.3359C62.8551 17.9231 64.703 19.8886 67.4582 19.8886ZM72.8445 19.6198H75.5829V11.0184H72.8445V19.6198ZM72.8445 9.82565H75.5829V7.60811H72.8445V9.82565ZM76.7707 22.4589H79.5091V18.7294H79.5427C80.0803 19.4518 80.8698 19.8886 81.9786 19.8886C84.2298 19.8886 85.7249 18.1078 85.7249 15.3191C85.7249 12.732 84.3306 10.7664 82.0458 10.7664C80.8698 10.7664 80.0299 11.2872 79.4419 12.06H79.3915V11.0184H76.7707V22.4589ZM81.273 17.7719C80.0971 17.7719 79.4251 16.8143 79.4251 15.4199C79.4251 14.0255 80.0299 12.9672 81.2226 12.9672C82.3986 12.9672 82.953 13.9416 82.953 15.4199C82.953 16.8815 82.3146 17.7719 81.273 17.7719ZM90.1831 19.8886C92.4342 19.8886 94.0974 18.9142 94.0974 17.0327C94.0974 14.8319 92.3167 14.4455 90.8047 14.1935C89.7127 13.992 88.7383 13.908 88.7383 13.3032C88.7383 12.7656 89.2591 12.5136 89.9311 12.5136C90.6871 12.5136 91.2079 12.7488 91.3087 13.5216H93.8286C93.6942 11.8248 92.3839 10.7664 89.9479 10.7664C87.9152 10.7664 86.2352 11.7072 86.2352 13.5216C86.2352 15.5375 87.8312 15.9407 89.3263 16.1927C90.4687 16.3943 91.5103 16.4783 91.5103 17.2511C91.5103 17.8055 90.9895 18.1078 90.1663 18.1078C89.2591 18.1078 88.6879 17.6879 88.5871 16.8311H86C86.084 18.7294 87.6632 19.8886 90.1831 19.8886ZM97.8171 19.8718C99.0099 19.8718 99.7659 19.4014 100.387 18.5614H100.438V19.6198H103.059V11.0184H100.32V15.8231C100.32 16.8479 99.7491 17.5535 98.8083 17.5535C97.9347 17.5535 97.5147 17.0327 97.5147 16.0919V11.0184H94.7932V16.6631C94.7932 18.5782 95.8348 19.8718 97.8171 19.8718ZM104.25 19.6198H106.988V14.7983C106.988 13.7736 107.492 13.0512 108.349 13.0512C109.172 13.0512 109.559 13.5888 109.559 14.5127V19.6198H112.297V14.7983C112.297 13.7736 112.784 13.0512 113.658 13.0512C114.481 13.0512 114.867 13.5888 114.867 14.5127V19.6198H117.606V14.0255C117.606 12.0936 116.631 10.7664 114.682 10.7664C113.574 10.7664 112.65 11.2368 111.978 12.2784H111.944C111.507 11.3544 110.651 10.7664 109.525 10.7664C108.282 10.7664 107.459 11.3544 106.921 12.2448H106.871V11.0184H104.25V19.6198ZM18.3215 0.737782L15.5685 0L13.2487 8.65878L11.1537 0.841379L8.40065 1.57986L10.6637 10.0258L5.02673 4.38889L3.01148 6.40484L9.19443 12.5871L1.49462 10.5235L0.756836 13.2766L9.16993 15.5305C8.63934 13.243 9.56542 10.8637 11.5037 9.53726C13.4419 8.2108 15.9955 8.20939 17.9358 9.53306C19.8755 10.856 20.8057 13.2346 20.2779 15.5228L27.9239 17.571L28.6609 14.8179L20.215 12.5549L27.9148 10.4913L27.1777 7.73831L18.7317 10.0014L24.3679 4.36509L22.3527 2.34914L16.2558 8.44599L18.3215 0.737782Z" fill="#FBFBFB"/>
<path d="M20.2702 15.5543C20.0378 16.5357 19.5479 17.4373 18.8521 18.1673L24.391 23.7063L26.407 21.6904L20.2702 15.5543ZM18.7961 18.2254C18.0947 18.9429 17.2155 19.4623 16.2488 19.7311L18.2648 27.2531L21.0178 26.5153L18.7961 18.2254ZM16.1466 19.7584C15.6811 19.8781 15.2031 19.9383 14.7229 19.9376C14.2091 19.9383 13.6981 19.869 13.2025 19.7325L11.1852 27.2622L13.9382 28L16.1466 19.7584ZM13.1052 19.7052C12.1518 19.4224 11.2895 18.8953 10.6028 18.1764L5.05051 23.7294L7.06576 25.7454L13.1052 19.7052ZM10.5566 18.1274C9.87829 17.403 9.40161 16.5133 9.17411 15.5473L1.503 17.6025L2.24078 20.3555L10.5566 18.1274Z" fill="#FBFBFB"/>
</svg>
