<svg width="80" height="28" viewBox="0 0 80 28" fill="none" xmlns="http://www.w3.org/2000/svg">
<path d="M12.1818 18.4218V23.3337H7.1081C3.28715 23.3337 0.189453 20.0349 0.189453 15.9653V4.66699H4.80208V15.9653C4.80208 17.322 5.83464 18.4218 7.1081 18.4218H12.1818ZM20.9454 9.57947C18.6526 9.57947 16.7939 11.5587 16.7939 14.0006C16.7939 16.4419 18.6526 18.4218 20.9454 18.4218C23.2376 18.4218 25.0964 16.4419 25.0964 14.0006C25.0964 11.5587 23.2376 9.57947 20.9454 9.57947ZM12.1818 14.0006C12.1818 8.84586 16.1057 4.66699 20.9454 4.66699C25.7851 4.66699 29.709 8.84586 29.709 14.0006C29.709 19.1548 25.7851 23.3337 20.9454 23.3337C16.1057 23.3337 12.1818 19.1548 12.1818 14.0006ZM70.7592 9.57947C68.4664 9.57947 66.6077 11.5587 66.6077 14.0006C66.6077 16.4419 68.4664 18.4218 70.7592 18.4218C73.0514 18.4218 74.9102 16.4419 74.9102 14.0006C74.9102 11.5587 73.0514 9.57947 70.7592 9.57947ZM61.9956 14.0006C61.9956 8.84586 65.9195 4.66699 70.7592 4.66699C75.5989 4.66699 79.5228 8.84586 79.5228 14.0006C79.5228 19.1548 75.5989 23.3337 70.7592 23.3337C65.9195 23.3337 61.9956 19.1548 61.9956 14.0006ZM52.3093 4.66699C57.149 4.66699 61.0729 8.84586 61.0729 14.0006V14.6201C61.0729 16.1508 60.7193 17.6583 60.0437 19.0089C60.0437 19.0089 58.8235 20.5337 57.8901 21.467C56.9568 22.4003 54.9171 22.9131 54.9171 22.9131C54.0938 23.1866 53.2177 23.3337 52.3093 23.3337H39.3947C34.555 23.3337 30.6312 19.1548 30.6312 14.0006C30.6312 8.84586 34.555 4.66699 39.3947 4.66699H52.3093ZM56.4608 14.0006C56.4608 11.5587 54.6021 9.57947 52.3093 9.57947H39.3947C37.1019 9.57947 35.2438 11.5587 35.2438 14.0006C35.2438 16.4419 37.1019 18.4218 39.3947 18.4218H52.3093C54.59 18.4224 56.4436 16.4633 56.4608 14.0348V14.0006Z" fill="#FBFBFB"/>
</svg>
