<svg width="117" height="28" viewBox="0 0 117 28" fill="none" xmlns="http://www.w3.org/2000/svg">
<path d="M34.4232 19.6198H42.7894V17.0999H37.3967V7.60811H34.4232V19.6198ZM47.7453 17.9399C46.5532 17.9399 45.9316 16.8983 45.9316 15.3359C45.9316 13.7736 46.5532 12.7152 47.746 12.7152C48.9387 12.7152 49.5771 13.7736 49.5771 15.3359C49.5771 16.8983 48.938 17.9399 47.7453 17.9399ZM47.7628 19.8886C50.5347 19.8886 52.3491 17.9231 52.3491 15.3359C52.3491 12.7488 50.5347 10.7832 47.7628 10.7832C45.0076 10.7832 43.1597 12.7488 43.1597 15.3359C43.1597 17.9231 45.0076 19.8886 47.7628 19.8886ZM57.1467 22.5933C58.4235 22.5933 59.5491 22.3077 60.3051 21.6358C60.9938 21.0142 61.4474 20.0734 61.4474 18.7798V11.0184H58.8267V11.9424H58.7931C58.2891 11.22 57.5163 10.7664 56.374 10.7664C54.2404 10.7664 52.7621 12.5472 52.7621 15.0671C52.7621 17.7047 54.5596 19.1494 56.4916 19.1494C57.5331 19.1494 58.1883 18.7294 58.6923 18.1582H58.7595V19.015C58.7595 20.0566 58.2723 20.6614 57.1131 20.6614C56.206 20.6614 55.7524 20.275 55.6012 19.8214H52.9468C53.2156 21.619 54.778 22.5933 57.1467 22.5933ZM57.1299 17.1167C56.1052 17.1167 55.4332 16.2767 55.4332 14.9831C55.4332 13.6728 56.1052 12.8328 57.1299 12.8328C58.2723 12.8328 58.8771 13.8072 58.8771 14.9663C58.8771 16.1759 58.3227 17.1167 57.1299 17.1167ZM66.8366 17.9399C65.6431 17.9399 65.0215 16.8983 65.0215 15.3359C65.0215 13.7736 65.6431 12.7152 66.8366 12.7152C68.0287 12.7152 68.6671 13.7736 68.6671 15.3359C68.6671 16.8983 68.0287 17.9399 66.8366 17.9399ZM66.8527 19.8886C69.6246 19.8886 71.439 17.9231 71.439 15.3359C71.439 12.7488 69.6246 10.7832 66.8527 10.7832C64.0976 10.7832 62.2496 12.7488 62.2496 15.3359C62.2496 17.9231 64.0976 19.8886 66.8527 19.8886ZM72.2391 19.6198H74.9774V11.0184H72.2391V19.6198ZM72.2391 9.82565H74.9774V7.60811H72.2391V9.82565ZM76.1653 22.4589H78.9036V18.7294H78.9372C79.4748 19.4518 80.2644 19.8886 81.3731 19.8886C83.6243 19.8886 85.1194 18.1078 85.1194 15.3191C85.1194 12.732 83.7251 10.7664 81.4403 10.7664C80.2644 10.7664 79.4244 11.2872 78.8364 12.06H78.786V11.0184H76.1653V22.4589ZM80.6676 17.7719C79.4916 17.7719 78.8196 16.8143 78.8196 15.4199C78.8196 14.0255 79.4244 12.9672 80.6172 12.9672C81.7931 12.9672 82.3475 13.9416 82.3475 15.4199C82.3475 16.8815 81.7091 17.7719 80.6676 17.7719ZM89.5776 19.8886C91.8288 19.8886 93.4919 18.9142 93.4919 17.0327C93.4919 14.8319 91.7112 14.4455 90.1992 14.1935C89.1072 13.992 88.1329 13.908 88.1329 13.3032C88.1329 12.7656 88.6537 12.5136 89.3256 12.5136C90.0816 12.5136 90.6024 12.7488 90.7032 13.5216H93.2231C93.0887 11.8248 91.7784 10.7664 89.3424 10.7664C87.3097 10.7664 85.6297 11.7072 85.6297 13.5216C85.6297 15.5375 87.2257 15.9407 88.7209 16.1927C89.8632 16.3943 90.9048 16.4783 90.9048 17.2511C90.9048 17.8055 90.384 18.1078 89.5608 18.1078C88.6537 18.1078 88.0825 17.6879 87.9817 16.8311H85.3945C85.4785 18.7294 87.0577 19.8886 89.5776 19.8886ZM97.2116 19.8718C98.4044 19.8718 99.1604 19.4014 99.782 18.5614H99.8324V19.6198H102.453V11.0184H99.7148V15.8231C99.7148 16.8479 99.1436 17.5535 98.2028 17.5535C97.3292 17.5535 96.9093 17.0327 96.9093 16.0919V11.0184H94.1877V16.6631C94.1877 18.5782 95.2293 19.8718 97.2116 19.8718ZM103.644 19.6198H106.383V14.7983C106.383 13.7736 106.887 13.0512 107.744 13.0512C108.567 13.0512 108.953 13.5888 108.953 14.5127V19.6198H111.691V14.7983C111.691 13.7736 112.179 13.0512 113.052 13.0512C113.875 13.0512 114.262 13.5888 114.262 14.5127V19.6198H117V14.0255C117 12.0936 116.026 10.7664 114.077 10.7664C112.968 10.7664 112.044 11.2368 111.372 12.2784H111.339C110.902 11.3544 110.045 10.7664 108.92 10.7664C107.676 10.7664 106.853 11.3544 106.316 12.2448H106.265V11.0184H103.644V19.6198ZM17.716 0.737782L14.963 0L12.6433 8.65878L10.5482 0.841379L7.79518 1.57986L10.0582 10.0258L4.42126 4.38889L2.40601 6.40484L8.58896 12.5871L0.889149 10.5235L0.151367 13.2766L8.56446 15.5305C8.03387 13.243 8.95995 10.8637 10.8982 9.53726C12.8365 8.2108 15.39 8.20939 17.3303 9.53306C19.27 10.856 20.2003 13.2346 19.6725 15.5228L27.3184 17.571L28.0555 14.8179L19.6095 12.5549L27.3093 10.4913L26.5722 7.73831L18.1262 10.0014L23.7625 4.36509L21.7472 2.34914L15.6504 8.44599L17.716 0.737782Z" fill="#FBFBFB"/>
<path d="M19.6648 15.5543C19.4324 16.5357 18.9424 17.4373 18.2466 18.1673L23.7856 23.7063L25.8015 21.6904L19.6648 15.5543ZM18.1906 18.2254C17.4892 18.9429 16.61 19.4623 15.6434 19.7311L17.6593 27.2531L20.4123 26.5153L18.1906 18.2254ZM15.5412 19.7584C15.0757 19.8781 14.5976 19.9383 14.1174 19.9376C13.6036 19.9383 13.0926 19.869 12.597 19.7325L10.5797 27.2622L13.3327 28L15.5412 19.7584ZM12.4997 19.7052C11.5464 19.4224 10.684 18.8953 9.99731 18.1764L4.44505 23.7294L6.4603 25.7454L12.4997 19.7052ZM9.95111 18.1274C9.27283 17.403 8.79614 16.5133 8.56864 15.5473L0.897534 17.6025L1.63532 20.3555L9.95111 18.1274Z" fill="#FBFBFB"/>
</svg>
