<svg width="79" height="28" viewBox="0 0 79 28" fill="none" xmlns="http://www.w3.org/2000/svg">
<path d="M4.63202 5.9249V23.2286H0V5.9249H4.63202ZM6.94832 5.9249H16.7917C19.9889 5.9249 22.5813 8.50724 22.5813 11.6926C22.5813 14.8786 19.9889 17.4603 16.7917 17.4603H11.5803V23.2286H6.94832V5.9249ZM11.5803 12.8466H16.7917C17.4302 12.8466 17.9487 12.3305 17.9493 11.6926C17.9493 11.0559 17.4314 10.5392 16.7917 10.5392H11.5803V12.8466ZM39.9518 5.9249V14.865C39.9518 16.9353 41.6367 18.6143 43.7154 18.6143C45.794 18.6143 47.4789 16.9353 47.4789 14.865V5.9249H52.1109V14.865C52.1109 19.484 48.3521 23.2286 43.7154 23.2286C39.0786 23.2286 35.3198 19.484 35.3198 14.865V5.9249H39.9518Z" fill="#FBFBFB"/>
<path d="M24.3188 14C24.3188 9.54006 27.9476 5.9249 32.4247 5.9249H33.5823V10.5392H32.4247C30.5057 10.5392 28.9508 12.0887 28.9508 14V14.5765C28.9508 19.3545 25.062 23.2286 20.2656 23.2286H19.6862V18.6143H20.2656C22.5039 18.6143 24.3188 16.8064 24.3188 14.5765V14Z" fill="#FBFBFB"/>
<path d="M78.1667 6.50191C78.1661 6.96127 77.9828 7.40112 77.6571 7.72569C77.3313 8.05026 76.8897 8.23234 76.4291 8.23234C75.9686 8.23234 75.527 8.05026 75.2018 7.72569C74.8761 7.40112 74.6928 6.96127 74.6922 6.50191C74.6928 6.04256 74.8761 5.60212 75.2018 5.27755C75.527 4.95298 75.9686 4.77089 76.4291 4.77149C76.8897 4.77089 77.3313 4.95298 77.6571 5.27755C77.9828 5.60212 78.1661 6.04256 78.1667 6.50191ZM57.0846 23.2286L59.2951 14.0083L60.9386 19.5549C61.9183 22.8632 66.6224 22.8632 67.6026 19.5549L69.2455 14.0089L71.4554 23.2286H76.2181L72.7425 8.73072C71.916 5.28228 67.0386 5.15458 66.0312 8.55455L64.2706 14.4996L62.5089 8.55514C61.5021 5.15517 56.6247 5.28287 55.7976 8.73072L52.3226 23.2286H57.0846Z" fill="#FBFBFB"/>
</svg>
