<svg width="102" height="36" viewBox="0 0 102 36" fill="none" xmlns="http://www.w3.org/2000/svg">
<path d="M15.4187 23.6847V30H8.89541C3.98275 30 0 25.7587 0 20.5263V6H5.93052V20.5263C5.93052 22.2707 7.2581 23.6847 8.89541 23.6847H15.4187ZM26.6862 12.316C23.7383 12.316 21.3485 14.8608 21.3485 18.0004C21.3485 21.1392 23.7383 23.6847 26.6862 23.6847C29.6334 23.6847 32.0232 21.1392 32.0232 18.0004C32.0232 14.8608 29.6334 12.316 26.6862 12.316ZM15.4187 18.0004C15.4187 11.3728 20.4637 6 26.6862 6C32.9087 6 37.9537 11.3728 37.9537 18.0004C37.9537 24.6272 32.9087 30 26.6862 30C20.4637 30 15.4187 24.6272 15.4187 18.0004ZM90.7325 12.316C87.7846 12.316 85.3949 14.8608 85.3949 18.0004C85.3949 21.1392 87.7846 23.6847 90.7325 23.6847C93.6797 23.6847 96.0695 21.1392 96.0695 18.0004C96.0695 14.8608 93.6797 12.316 90.7325 12.316ZM79.4651 18.0004C79.4651 11.3728 84.51 6 90.7325 6C96.955 6 102 11.3728 102 18.0004C102 24.6272 96.955 30 90.7325 30C84.51 30 79.4651 24.6272 79.4651 18.0004ZM67.0112 6C73.2337 6 78.2787 11.3728 78.2787 18.0004V18.7969C78.2787 20.7649 77.8241 22.7031 76.9555 24.4396C76.9555 24.4396 75.3866 26.4 74.1866 27.6C72.9866 28.8 70.3642 29.4593 70.3642 29.4593C69.3057 29.8109 68.1791 30 67.0112 30H50.4068C44.1843 30 39.1393 24.6272 39.1393 18.0004C39.1393 11.3728 44.1843 6 50.4068 6H67.0112ZM72.3489 18.0004C72.3489 14.8608 69.9591 12.316 67.0112 12.316H50.4068C47.4589 12.316 45.0699 14.8608 45.0699 18.0004C45.0699 21.1392 47.4589 23.6847 50.4068 23.6847H67.0112C69.9436 23.6855 72.3267 21.1667 72.3489 18.0443V18.0004Z" fill="#FBFBFB"/>
</svg>
