<svg width="32" height="32" viewBox="0 0 32 32" fill="none" xmlns="http://www.w3.org/2000/svg">
<path d="M23.8325 13.4102C23.3313 12.5783 22.8625 11.6119 22.3653 10.5868C21.861 9.5462 21.3256 8.5549 20.681 7.52692C20.0123 6.46046 19.323 5.24968 19.4709 3.99964V3.99964C19.4959 3.78764 19.5542 3.5699 19.6323 3.3562C19.9672 2.43897 21.4606 2.29848 22.0277 3.09339V3.09339C23.3872 4.99966 24.328 6.93826 25.1575 8.65121C25.6122 9.59055 26.0417 10.4771 26.4492 11.1511C27.3541 12.6513 28.6385 13.8539 30.0759 14.5903C31.0515 15.0901 31.7237 16.1783 31.405 17.2272L31.3248 17.4913C31.0797 18.298 30.2338 18.7766 29.4605 18.4406V18.4406C27.2277 17.4745 25.2098 15.6919 23.8325 13.4102Z" fill="url(#paint0_linear_5003_364)"/>
<path d="M0.715832 14.7764C0.999266 13.8412 1.91497 13.2024 2.85942 13.4532C3.92792 13.7369 4.31258 13.8821 4.52972 13.946C6.33274 14.4794 7.96744 15.589 9.24455 17.2089C10.6499 18.9908 11.2822 21.3455 12.4672 23.3119C12.6051 23.5403 12.7457 23.7663 12.889 23.99C13.1828 24.4487 13.2717 25.0117 13.1134 25.5329V25.5329C12.6896 26.9279 10.8618 27.2695 10.0687 26.046C9.75642 25.5642 9.45978 25.0692 9.18622 24.5573C8.40098 23.0868 7.86338 21.4353 6.95354 20.0596C6.16564 18.8693 5.03089 18.1501 3.84208 17.6884C3.61075 17.5985 2.84415 17.3799 1.98187 17.1547C0.951467 16.8856 0.406938 15.7955 0.715832 14.7764V14.7764Z" fill="#A78BFA"/>
<path d="M19.1712 17.5224C18.5034 16.4148 17.9395 15.2521 17.3932 14.1258C16.7233 12.7445 16.0305 11.3161 15.199 10.1485C13.8769 8.29576 11.9805 6.76968 9.56312 5.61562C8.36816 5.04422 7.1122 4.59119 5.84025 4.19696C4.81629 3.87959 4.21849 2.8054 4.53046 1.77978V1.77978C4.83149 0.790157 5.86942 0.215622 6.85609 0.526204C8.16918 0.939538 9.48057 1.42071 10.7643 2.03362C13.6709 3.42421 15.9894 5.31233 17.6553 7.6448C18.6772 9.07585 19.4454 10.6594 20.1875 12.1914C20.6934 13.2341 21.2147 14.3111 21.79 15.2632C23.4513 18.017 25.8607 20.1801 28.5716 21.3557V21.3557C29.3502 21.6925 29.8187 22.5422 29.5721 23.3539L29.3612 24.0482C29.1147 24.8596 28.2476 25.3198 27.4699 24.9817V24.9817C24.155 23.5457 21.2078 20.8965 19.1712 17.5224Z" fill="#06B6D4"/>
<path d="M10.8275 14.6108C10.1154 13.613 8.97161 12.7326 7.42851 11.9957C6.34479 11.4782 5.14947 11.0671 3.88232 10.6916C2.84977 10.3857 2.24575 9.30774 2.55877 8.27733V8.27733C2.85827 7.29143 3.88885 6.71532 4.87573 7.01158C6.18416 7.40437 7.43884 7.84468 8.62869 8.4138C10.6629 9.38591 12.2288 10.6283 13.2838 12.1058C13.9682 13.0654 14.5737 14.3151 15.2163 15.6412C15.7659 16.7734 16.3878 18.0572 17.1297 19.2862C19.4578 23.1453 22.8247 26.1735 26.6104 27.8145V27.8145C27.3984 28.1551 27.8521 29.0196 27.6027 29.841L27.3956 30.5233C27.1509 31.3292 26.2822 31.7762 25.5098 31.4405V31.4405C21.1219 29.5389 17.2172 26.0246 14.5129 21.5441C13.6764 20.1585 13.0109 18.7853 12.4229 17.572C11.8559 16.4071 11.3225 15.3031 10.8275 14.6108Z" fill="url(#paint1_linear_5003_364)"/>
<defs>
<linearGradient id="paint0_linear_5003_364" x1="25.7169" y1="1.59961" x2="25.7169" y2="18.9366" gradientUnits="userSpaceOnUse">
<stop stop-color="#7D76FF"/>
<stop offset="1" stop-color="#2F27B1"/>
</linearGradient>
<linearGradient id="paint1_linear_5003_364" x1="15.0187" y1="6.50781" x2="15.0187" y2="31.9997" gradientUnits="userSpaceOnUse">
<stop stop-color="#7D76FF"/>
<stop offset="1" stop-color="#2F27B1"/>
</linearGradient>
</defs>
</svg>
