<svg width="1120" height="323" viewBox="0 0 1120 323" fill="none" xmlns="http://www.w3.org/2000/svg">
<path d="M238.325 169.11C233.313 162.223 228.625 154.224 223.654 145.737C218.446 136.842 212.907 128.382 206.178 119.574C199.88 111.331 193.242 101.475 194.709 91.2062C194.929 89.6653 195.405 88.0879 196.047 86.5286C199.69 77.6663 214.022 76.4455 220.277 83.704C233.872 99.4847 243.28 115.533 251.575 129.714C256.122 137.49 260.417 144.829 264.492 150.409C273.792 163.172 287.1 173.333 301.958 179.377C310.993 183.053 316.886 192.982 313.526 202.138C310.85 209.429 303.159 213.731 295.823 211.184C295.416 211.043 295.01 210.9 294.605 210.754C272.277 202.756 252.098 187.999 238.325 169.11Z" fill="url(#paint0_linear_5038_766)"/>
<path d="M7.56965 179.265C10.06 172.067 17.1345 167.008 24.5851 168.59C38.3654 171.517 42.8767 172.946 45.3006 173.537C63.3307 177.952 79.6776 187.138 92.4486 200.548C106.502 215.3 112.825 234.792 124.675 251.071C125.674 252.44 126.686 253.799 127.713 255.147C131.297 259.854 132.389 266.046 130.35 271.6C126.08 283.235 110.958 286.387 103.138 276.772C99.1136 271.823 95.3069 266.712 91.8654 261.381C84.013 249.208 78.637 235.536 69.5386 224.148C61.6598 214.293 50.3123 208.34 38.4242 204.518C35.9803 203.732 27.5621 201.756 18.353 199.784C9.18277 197.819 4.50339 188.128 7.56965 179.265Z" fill="#A78BFA"/>
<path d="M191.716 203.149C185.038 193.979 179.399 184.354 173.936 175.031C167.237 163.595 160.309 151.771 151.994 142.105C138.773 126.767 119.809 114.134 95.6352 104.58C83.3262 99.7074 70.3699 95.8746 57.2584 92.5425C47.9349 90.1732 42.5535 80.3241 45.8714 71.2946C48.6436 63.7501 56.6042 59.4165 64.3983 61.3804C78.9188 65.0392 93.4519 69.3163 107.647 74.9269C136.713 86.4387 159.897 102.069 176.556 121.378C186.775 133.225 194.457 146.335 201.878 159.016C206.938 167.648 212.151 176.564 217.903 184.446C234.516 207.243 258.611 225.15 285.719 234.882C293.305 237.599 297.768 245.852 294.992 253.417L294.094 255.866C291.282 263.528 283.066 267.87 275.374 265.14C275.15 265.06 274.926 264.98 274.702 264.9C241.553 253.011 212.081 231.081 191.716 203.149Z" fill="#06B6D4"/>
<path d="M108.28 179.048C101.159 170.788 89.721 163.5 74.2901 157.4C63.1113 152.98 50.7451 149.498 37.6279 146.311C28.2506 144.032 22.8246 134.162 26.149 125.102C28.9071 117.586 36.8152 113.248 44.599 115.121C59.1893 118.633 73.1368 122.538 86.2918 127.747C106.634 135.795 122.293 146.08 132.842 158.311C139.687 166.255 145.742 176.6 152.168 187.578C157.664 196.951 163.882 207.579 171.301 217.753C194.582 249.7 228.251 274.769 266.108 288.353C273.769 291.094 278.11 299.46 275.309 307.098L274.569 309.117C271.7 316.941 263.247 321.288 255.402 318.478C255.302 318.443 255.202 318.407 255.102 318.371C211.224 302.628 172.177 273.536 145.134 236.445C136.769 224.974 130.113 213.606 124.234 203.562C118.564 193.919 113.23 184.779 108.28 179.048Z" fill="url(#paint1_linear_5038_766)"/>
<path d="M386.227 261.966V113.616H440.798C448.851 113.616 456.092 115.594 462.521 119.55C468.949 123.506 474.036 128.84 477.78 135.551C481.594 142.191 483.502 149.609 483.502 157.803C483.502 164.726 482.195 171.049 479.581 176.771C477.038 182.493 473.435 187.367 468.773 191.394C464.181 195.42 458.918 198.317 452.984 200.083L488.8 261.966H463.263L428.506 202.096H408.267V261.966H386.227ZM408.267 180.056H438.467C442.705 180.056 446.556 178.996 450.017 176.877C453.549 174.757 456.34 171.932 458.388 168.4C460.437 164.867 461.461 160.876 461.461 156.426C461.461 151.975 460.437 147.984 458.388 144.452C456.34 140.849 453.549 138.023 450.017 135.975C446.556 133.855 442.705 132.796 438.467 132.796H408.267V180.056Z" fill="#FBFBFB"/>
<path d="M504.12 156.002H526.161V261.966H504.12V156.002ZM515.352 140.637C511.961 140.637 509.136 139.542 506.875 137.352C504.615 135.162 503.484 132.407 503.484 129.087C503.484 125.837 504.615 123.118 506.875 120.928C509.136 118.667 511.926 117.537 515.246 117.537C518.496 117.537 521.251 118.667 523.511 120.928C525.772 123.118 526.902 125.837 526.902 129.087C526.902 132.407 525.772 135.162 523.511 137.352C521.322 139.542 518.602 140.637 515.352 140.637Z" fill="#FBFBFB"/>
<path d="M604.284 178.042H582.032L581.926 261.966H559.885L559.991 178.042H543.143V156.002H559.991L559.885 122.729H581.926L582.032 156.002H604.284V178.042Z" fill="#FBFBFB"/>
<path d="M664.217 264.721C654.468 264.721 645.567 262.213 637.514 257.198C629.531 252.182 623.138 245.471 618.335 237.064C613.601 228.587 611.235 219.227 611.235 208.984C611.235 201.213 612.612 193.972 615.368 187.261C618.123 180.48 621.902 174.546 626.706 169.459C631.58 164.302 637.232 160.276 643.66 157.379C650.089 154.483 656.941 153.035 664.217 153.035C672.341 153.035 679.794 154.73 686.576 158.121C693.357 161.441 699.15 166.068 703.954 172.002C708.757 177.866 712.289 184.647 714.55 192.348C716.811 199.977 717.482 208.101 716.563 216.719H634.865C635.783 221.594 637.549 226.009 640.163 229.965C642.848 233.85 646.238 236.923 650.336 239.184C654.504 241.444 659.131 242.61 664.217 242.681C669.586 242.681 674.46 241.338 678.84 238.654C683.291 235.969 686.929 232.261 689.754 227.528L712.113 232.72C707.874 242.115 701.481 249.815 692.933 255.82C684.386 261.754 674.813 264.721 664.217 264.721ZM634.123 199.871H694.311C693.604 194.785 691.803 190.193 688.907 186.096C686.081 181.928 682.514 178.643 678.204 176.241C673.966 173.768 669.303 172.532 664.217 172.532C659.201 172.532 654.539 173.733 650.23 176.135C645.991 178.537 642.459 181.822 639.633 185.99C636.878 190.087 635.042 194.714 634.123 199.871Z" fill="#FBFBFB"/>
<path d="M767.764 131.948L764.479 156.002H794.361L791.288 178.042H761.3L749.644 261.966H727.603L739.26 178.042H726.756L729.829 156.002H742.438L745.723 131.948C746.571 126.155 748.761 120.892 752.293 116.159C755.825 111.356 760.17 107.541 765.327 104.715C770.484 101.889 775.994 100.477 781.857 100.477C786.096 100.477 790.087 101.324 793.831 103.02C797.646 104.715 800.895 107.329 803.58 110.861L785.566 126.438C784.93 125.166 783.976 124.213 782.705 123.577C781.433 122.87 780.091 122.517 778.678 122.517C776.064 122.517 773.698 123.435 771.579 125.272C769.459 127.109 768.188 129.334 767.764 131.948Z" fill="url(#paint2_linear_5038_766)"/>
<path d="M795.293 261.966L817.546 103.02H839.586L817.334 261.966H795.293Z" fill="url(#paint3_linear_5038_766)"/>
<path d="M884.154 264.721C874.405 264.721 865.858 262.213 858.511 257.198C851.235 252.182 845.795 245.471 842.192 237.064C838.66 228.587 837.6 219.227 839.013 208.984C840.073 201.213 842.439 193.972 846.113 187.261C849.857 180.48 854.519 174.546 860.1 169.459C865.681 164.302 871.862 160.276 878.644 157.379C885.496 154.483 892.561 153.035 899.837 153.035C909.585 153.035 918.098 155.543 925.374 160.558C932.721 165.574 938.196 172.32 941.799 180.797C945.401 189.275 946.461 198.67 944.978 208.984C943.918 216.684 941.516 223.89 937.772 230.601C934.099 237.312 929.471 243.246 923.891 248.403C918.31 253.489 912.129 257.48 905.347 260.377C898.565 263.273 891.501 264.721 884.154 264.721ZM887.227 242.681C893.09 242.681 898.565 241.126 903.651 238.018C908.738 234.91 913.012 230.813 916.473 225.726C920.005 220.569 922.16 214.989 922.937 208.984C923.785 202.838 923.184 197.187 921.136 192.03C919.087 186.873 915.943 182.775 911.705 179.738C907.466 176.63 902.486 175.075 896.764 175.075C890.971 175.075 885.496 176.63 880.339 179.738C875.253 182.846 870.979 186.979 867.518 192.136C864.056 197.293 861.902 202.909 861.054 208.984C860.206 215.271 860.807 220.958 862.855 226.044C864.975 231.13 868.153 235.192 872.392 238.23C876.631 241.197 881.576 242.681 887.227 242.681Z" fill="url(#paint4_linear_5038_766)"/>
<path d="M997.609 261.966H975.674L955.011 156.002H976.628L991.145 230.389L1026.43 156.002H1048.68L1062.99 230.389L1098.38 156.002H1120L1069.77 261.966H1047.62L1033.11 187.049L997.609 261.966Z" fill="url(#paint5_linear_5038_766)"/>
<defs>
<linearGradient id="paint0_linear_5038_766" x1="257.169" y1="71.3379" x2="257.169" y2="214.86" gradientUnits="userSpaceOnUse">
<stop stop-color="#7D76FF"/>
<stop offset="1" stop-color="#2F27B1"/>
</linearGradient>
<linearGradient id="paint1_linear_5038_766" x1="150.191" y1="111.969" x2="150.191" y2="323" gradientUnits="userSpaceOnUse">
<stop stop-color="#7D76FF"/>
<stop offset="1" stop-color="#2F27B1"/>
</linearGradient>
<linearGradient id="paint2_linear_5038_766" x1="753.112" y1="100.477" x2="753.112" y2="264.721" gradientUnits="userSpaceOnUse">
<stop stop-color="#7D76FF"/>
<stop offset="1" stop-color="#2F27B1"/>
</linearGradient>
<linearGradient id="paint3_linear_5038_766" x1="753.112" y1="100.477" x2="753.112" y2="264.721" gradientUnits="userSpaceOnUse">
<stop stop-color="#7D76FF"/>
<stop offset="1" stop-color="#2F27B1"/>
</linearGradient>
<linearGradient id="paint4_linear_5038_766" x1="753.112" y1="100.477" x2="753.112" y2="264.721" gradientUnits="userSpaceOnUse">
<stop stop-color="#7D76FF"/>
<stop offset="1" stop-color="#2F27B1"/>
</linearGradient>
<linearGradient id="paint5_linear_5038_766" x1="753.112" y1="100.477" x2="753.112" y2="264.721" gradientUnits="userSpaceOnUse">
<stop stop-color="#7D76FF"/>
<stop offset="1" stop-color="#2F27B1"/>
</linearGradient>
</defs>
</svg>
