<svg width="14" height="8" viewBox="0 0 14 8" fill="none" xmlns="http://www.w3.org/2000/svg">
<path d="M6.99671 8C6.84272 8 6.69918 7.97208 6.5661 7.91626C6.43302 7.86043 6.30951 7.77226 6.19557 7.65174L0.275405 1.61464C0.0906957 1.43035 -0.00110271 1.20817 9.99438e-06 0.948084C0.00134524 0.687999 0.0965929 0.46502 0.285753 0.279147C0.474913 0.093048 0.693226 0 0.940693 0C1.18794 0 1.40269 0.093048 1.58495 0.279147L6.99671 5.79779L12.4085 0.279147C12.5821 0.101899 12.7947 0.0111189 13.0464 0.00680685C13.2981 0.00226784 13.5185 0.093048 13.7077 0.279147C13.8968 0.46502 13.9942 0.685843 13.9998 0.941616C14.0053 1.19739 13.9135 1.42173 13.7244 1.61464L7.80421 7.65174C7.68604 7.77226 7.56041 7.86043 7.42733 7.91626C7.29425 7.97208 7.15071 8 6.99671 8Z" fill="white"/>
</svg>
