<svg width="110" height="26" viewBox="0 0 110 26" fill="none" xmlns="http://www.w3.org/2000/svg">
<path d="M23.3901 10.8958C22.8983 10.2199 22.4381 9.43473 21.9502 8.60179C21.4391 7.72881 20.8955 6.89849 20.235 6.03398C19.6169 5.22499 18.9654 4.25765 19.1094 3.2498C19.131 3.09858 19.1778 2.94376 19.2407 2.79072C19.5983 1.92092 21.0049 1.80109 21.6188 2.51349C22.9531 4.06231 23.8765 5.63741 24.6906 7.02917C25.1369 7.79237 25.5584 8.51266 25.9583 9.06032C26.8711 10.313 28.1773 11.3103 29.6355 11.9035C30.5222 12.2642 31.1006 13.2387 30.7708 14.1374C30.5082 14.8529 29.7534 15.2752 29.0333 15.0252C28.9934 15.0114 28.9536 14.9973 28.9139 14.983C26.7224 14.198 24.742 12.7497 23.3901 10.8958Z" fill="url(#paint0_linear_5001_95)"/>
<path d="M0.742806 11.8921C0.987222 11.1857 1.68156 10.6891 2.41281 10.8444C3.7653 11.1316 4.20807 11.2719 4.44596 11.3299C6.21555 11.7633 7.81994 12.6648 9.07337 13.981C10.4526 15.4288 11.0732 17.3419 12.2363 18.9396C12.3343 19.074 12.4337 19.2073 12.5345 19.3397C12.8862 19.8017 12.9933 20.4093 12.7933 20.9544C12.3742 22.0964 10.89 22.4058 10.1225 21.462C9.72751 20.9763 9.3539 20.4747 9.01612 19.9515C8.24544 18.7567 7.71781 17.4149 6.82484 16.2972C6.05155 15.33 4.93784 14.7457 3.77107 14.3706C3.53121 14.2934 2.70499 14.0995 1.80116 13.9059C0.901129 13.7131 0.441865 12.762 0.742806 11.8921Z" fill="#A78BFA"/>
<path d="M18.8158 14.2368C18.1603 13.3369 17.6069 12.3922 17.0707 11.4771C16.4132 10.3548 15.7333 9.19423 14.9172 8.24559C13.6196 6.74023 11.7584 5.5003 9.38579 4.56264C8.1777 4.08442 6.90609 3.70824 5.61924 3.38121C4.70418 3.14867 4.17602 2.18202 4.50165 1.29581C4.77373 0.555343 5.55504 0.130015 6.32 0.322766C7.74513 0.681866 9.1715 1.10164 10.5647 1.6523C13.4174 2.78214 15.6929 4.31623 17.3279 6.21133C18.3308 7.37405 19.0848 8.6607 19.8131 9.90538C20.3097 10.7526 20.8214 11.6276 21.3859 12.4012C23.0164 14.6387 25.3812 16.3961 28.0418 17.3513C28.7863 17.618 29.2244 18.428 28.952 19.1704L28.8638 19.4108C28.5878 20.1628 27.7814 20.589 27.0265 20.321C27.0045 20.3132 26.9825 20.3053 26.9605 20.2974C23.7071 19.1306 20.8145 16.9782 18.8158 14.2368Z" fill="#06B6D4"/>
<path d="M10.6269 11.8717C9.92793 11.061 8.80535 10.3457 7.29086 9.74699C6.19371 9.31319 4.98001 8.97145 3.6926 8.65865C2.77226 8.43502 2.23971 7.46624 2.56599 6.57709C2.83669 5.83942 3.61284 5.41363 4.37679 5.59749C5.80877 5.94213 7.17767 6.32544 8.46879 6.83668C10.4653 7.62651 12.0022 8.63594 13.0376 9.83644C13.7093 10.6161 14.3036 11.6314 14.9342 12.7089C15.4737 13.6287 16.084 14.6718 16.8122 15.6704C19.0971 18.8059 22.4016 21.2663 26.1171 22.5995C26.869 22.8686 27.2951 23.6896 27.0201 24.4393L26.9475 24.6375C26.6659 25.4054 25.8363 25.832 25.0664 25.5563C25.0565 25.5527 25.0467 25.5492 25.0368 25.5457C20.7304 24.0006 16.8981 21.1453 14.2439 17.5049C13.4229 16.3792 12.7697 15.2634 12.1926 14.2776C11.6362 13.3312 11.1126 12.4341 10.6269 11.8717Z" fill="url(#paint1_linear_5001_95)"/>
<path d="M37.9067 20.0098V5.44976H43.2627C44.0531 5.44976 44.7638 5.64389 45.3947 6.03216C46.0257 6.42042 46.5249 6.94389 46.8923 7.60256C47.2667 8.25429 47.4539 8.98229 47.4539 9.78656C47.4539 10.466 47.3257 11.0866 47.0691 11.6482C46.8195 12.2098 46.4659 12.6882 46.0083 13.0834C45.5577 13.4786 45.0411 13.7628 44.4587 13.9362L47.9739 20.0098H45.4675L42.0563 14.1338H40.0699V20.0098H37.9067ZM40.0699 11.9706H43.0339C43.4499 11.9706 43.8278 11.8666 44.1675 11.6586C44.5142 11.4506 44.7881 11.1732 44.9891 10.8266C45.1902 10.4799 45.2907 10.0882 45.2907 9.65136C45.2907 9.21456 45.1902 8.82282 44.9891 8.47616C44.7881 8.12256 44.5142 7.84522 44.1675 7.64416C43.8278 7.43616 43.4499 7.33216 43.0339 7.33216H40.0699V11.9706Z" fill="#FBFBFB"/>
<path d="M49.4775 9.60976H51.6407V20.0098H49.4775V9.60976ZM50.5799 8.10176C50.2471 8.10176 49.9698 7.99429 49.7479 7.77936C49.5261 7.56442 49.4151 7.29402 49.4151 6.96816C49.4151 6.64922 49.5261 6.38229 49.7479 6.16736C49.9698 5.94549 50.2437 5.83456 50.5695 5.83456C50.8885 5.83456 51.1589 5.94549 51.3807 6.16736C51.6026 6.38229 51.7135 6.64922 51.7135 6.96816C51.7135 7.29402 51.6026 7.56442 51.3807 7.77936C51.1658 7.99429 50.8989 8.10176 50.5799 8.10176Z" fill="#FBFBFB"/>
<path d="M59.3083 11.773H57.1243L57.1139 20.0098H54.9507L54.9611 11.773H53.3075V9.60976H54.9611L54.9507 6.34416H57.1139L57.1243 9.60976H59.3083V11.773Z" fill="#FBFBFB"/>
<path d="M65.1905 20.2802C64.2337 20.2802 63.3601 20.034 62.5697 19.5418C61.7862 19.0495 61.1588 18.3908 60.6873 17.5658C60.2228 16.7338 59.9905 15.8151 59.9905 14.8098C59.9905 14.0471 60.1257 13.3364 60.3961 12.6778C60.6665 12.0122 61.0374 11.4298 61.5089 10.9306C61.9873 10.4244 62.542 10.0292 63.1729 9.74496C63.8038 9.46069 64.4764 9.31856 65.1905 9.31856C65.9878 9.31856 66.7193 9.48496 67.3849 9.81776C68.0505 10.1436 68.619 10.5978 69.0905 11.1802C69.562 11.7556 69.9086 12.4212 70.1305 13.177C70.3524 13.9258 70.4182 14.7231 70.3281 15.569H62.3097C62.3998 16.0474 62.5732 16.4807 62.8297 16.869C63.0932 17.2503 63.426 17.5519 63.8281 17.7738C64.2372 17.9956 64.6913 18.11 65.1905 18.117C65.7174 18.117 66.1958 17.9852 66.6257 17.7218C67.0625 17.4583 67.4196 17.0943 67.6969 16.6298L69.8913 17.1394C69.4753 18.0615 68.8478 18.8172 68.0089 19.4066C67.17 19.989 66.2305 20.2802 65.1905 20.2802ZM62.2369 13.9154H68.1441C68.0748 13.4162 67.898 12.9655 67.6137 12.5634C67.3363 12.1543 66.9862 11.8319 66.5633 11.5962C66.1473 11.3535 65.6897 11.2322 65.1905 11.2322C64.6982 11.2322 64.2406 11.35 63.8177 11.5858C63.4017 11.8215 63.055 12.1439 62.7777 12.553C62.5073 12.9551 62.327 13.4092 62.2369 13.9154Z" fill="#FBFBFB"/>
<path d="M75.3532 7.24896L75.0308 9.60976H77.9636L77.662 11.773H74.7188L73.5748 20.0098H71.4116L72.5556 11.773H71.3284L71.63 9.60976H72.8676L73.19 7.24896C73.2732 6.68042 73.4882 6.16389 73.8348 5.69936C74.1815 5.22789 74.6079 4.85349 75.114 4.57616C75.6202 4.29882 76.161 4.16016 76.7364 4.16016C77.1524 4.16016 77.5442 4.24336 77.9116 4.40976C78.286 4.57616 78.605 4.83269 78.8684 5.17936L77.1004 6.70816C77.038 6.58336 76.9444 6.48976 76.8196 6.42736C76.6948 6.35802 76.5631 6.32336 76.4244 6.32336C76.1679 6.32336 75.9356 6.41349 75.7276 6.59376C75.5196 6.77402 75.3948 6.99242 75.3532 7.24896Z" fill="url(#paint2_linear_5001_95)"/>
<path d="M78.0551 20.0098L80.2391 4.40976H82.4023L80.2183 20.0098H78.0551Z" fill="url(#paint3_linear_5001_95)"/>
<path d="M86.7765 20.2802C85.8197 20.2802 84.9808 20.034 84.2597 19.5418C83.5456 19.0495 83.0117 18.3908 82.6581 17.5658C82.3114 16.7338 82.2074 15.8151 82.3461 14.8098C82.4501 14.0471 82.6824 13.3364 83.0429 12.6778C83.4104 12.0122 83.868 11.4298 84.4157 10.9306C84.9634 10.4244 85.5701 10.0292 86.2357 9.74496C86.9082 9.46069 87.6016 9.31856 88.3157 9.31856C89.2725 9.31856 90.108 9.56469 90.8221 10.057C91.5432 10.5492 92.0805 11.2114 92.4341 12.0434C92.7877 12.8754 92.8917 13.7975 92.7461 14.8098C92.6421 15.5655 92.4064 16.2727 92.0389 16.9314C91.6784 17.59 91.2242 18.1724 90.6765 18.6786C90.1288 19.1778 89.5221 19.5695 88.8565 19.8538C88.1909 20.138 87.4976 20.2802 86.7765 20.2802ZM87.0781 18.117C87.6536 18.117 88.1909 17.9644 88.6901 17.6594C89.1893 17.3543 89.6088 16.9522 89.9485 16.453C90.2952 15.9468 90.5066 15.3991 90.5829 14.8098C90.6661 14.2066 90.6072 13.6519 90.4061 13.1458C90.205 12.6396 89.8965 12.2375 89.4805 11.9394C89.0645 11.6343 88.5757 11.4818 88.0141 11.4818C87.4456 11.4818 86.9082 11.6343 86.4021 11.9394C85.9029 12.2444 85.4834 12.65 85.1437 13.1562C84.804 13.6623 84.5925 14.2135 84.5093 14.8098C84.4261 15.4268 84.485 15.985 84.6861 16.4842C84.8941 16.9834 85.2061 17.382 85.6221 17.6802C86.0381 17.9714 86.5234 18.117 87.0781 18.117Z" fill="url(#paint4_linear_5001_95)"/>
<path d="M97.9116 20.0098H95.7588L93.7308 9.60976H95.8524L97.2772 16.9106L100.74 9.60976H102.924L104.328 16.9106L107.802 9.60976H109.924L104.994 20.0098H102.82L101.396 12.657L97.9116 20.0098Z" fill="url(#paint5_linear_5001_95)"/>
<defs>
<linearGradient id="paint0_linear_5001_95" x1="25.2396" y1="1.2998" x2="25.2396" y2="15.3859" gradientUnits="userSpaceOnUse">
<stop stop-color="#7D76FF"/>
<stop offset="1" stop-color="#2F27B1"/>
</linearGradient>
<linearGradient id="paint1_linear_5001_95" x1="14.7403" y1="5.28809" x2="14.7403" y2="26" gradientUnits="userSpaceOnUse">
<stop stop-color="#7D76FF"/>
<stop offset="1" stop-color="#2F27B1"/>
</linearGradient>
<linearGradient id="paint2_linear_5001_95" x1="73.9152" y1="4.16016" x2="73.9152" y2="20.2802" gradientUnits="userSpaceOnUse">
<stop stop-color="#7D76FF"/>
<stop offset="1" stop-color="#2F27B1"/>
</linearGradient>
<linearGradient id="paint3_linear_5001_95" x1="73.9152" y1="4.16016" x2="73.9152" y2="20.2802" gradientUnits="userSpaceOnUse">
<stop stop-color="#7D76FF"/>
<stop offset="1" stop-color="#2F27B1"/>
</linearGradient>
<linearGradient id="paint4_linear_5001_95" x1="73.9152" y1="4.16016" x2="73.9152" y2="20.2802" gradientUnits="userSpaceOnUse">
<stop stop-color="#7D76FF"/>
<stop offset="1" stop-color="#2F27B1"/>
</linearGradient>
<linearGradient id="paint5_linear_5001_95" x1="73.9152" y1="4.16016" x2="73.9152" y2="20.2802" gradientUnits="userSpaceOnUse">
<stop stop-color="#7D76FF"/>
<stop offset="1" stop-color="#2F27B1"/>
</linearGradient>
</defs>
</svg>
