<svg width="36" height="36" viewBox="0 0 36 36" fill="none" xmlns="http://www.w3.org/2000/svg">
<g clip-path="url(#clip0_5470_60986)">
<path d="M27.4688 12.3675C29.3018 11.163 30.5153 9.087 30.5153 6.735C30.5153 3.021 27.4928 0 23.7788 0H12.2228C8.50883 0 5.48633 3.021 5.48633 6.735C5.48633 9.087 6.69983 11.163 8.53283 12.3675C6.69983 13.572 5.48633 15.648 5.48633 18C5.48633 20.352 6.69983 22.428 8.53283 23.6325C6.69983 24.8355 5.48633 26.9115 5.48633 29.265C5.48633 32.979 8.52383 36 12.2588 36C16.0328 36 19.1048 32.946 19.1048 29.1915V22.98C20.3018 24.0705 21.8918 24.735 23.6333 24.735H23.7788C27.4928 24.735 30.5153 21.714 30.5153 18C30.5153 15.648 29.3018 13.572 27.4688 12.3675ZM19.1033 2.2065H23.7788C26.2763 2.2065 28.3088 4.2375 28.3088 6.735C28.3088 9.2325 26.2763 11.265 23.7788 11.265H19.1033V2.2065ZM7.69283 6.735C7.69283 4.2375 9.72533 2.2065 12.2228 2.2065H16.8983V11.265H12.2228C9.72533 11.265 7.69283 9.2325 7.69283 6.735ZM7.69283 18C7.69283 15.5025 9.72533 13.4715 12.2228 13.4715H16.8983V22.53H12.1943C9.71033 22.5135 7.69283 20.487 7.69283 18ZM16.8983 29.1915C16.8983 31.7295 14.8163 33.7935 12.2588 33.7935C9.74183 33.7935 7.69283 31.7625 7.69283 29.265C7.69283 26.7675 9.72533 24.735 12.2228 24.735H16.8983V29.1915ZM23.7788 22.53H23.6333C21.1358 22.53 19.1048 20.4975 19.1048 18C19.1048 15.5025 21.1358 13.4715 23.6333 13.4715H23.7788C26.2763 13.4715 28.3088 15.5025 28.3088 18C28.3088 20.4975 26.2763 22.53 23.7788 22.53Z" fill="white"/>
</g>
<defs>
<clipPath id="clip0_5470_60986">
<rect width="36" height="36" fill="white"/>
</clipPath>
</defs>
</svg>
