<svg width="21" height="22" viewBox="0 0 21 22" fill="none" xmlns="http://www.w3.org/2000/svg">
<path d="M8.90633 2.60176C9.70664 1.5463 11.2934 1.5463 12.0937 2.60176L12.6058 3.27715C13.0425 3.85305 13.7559 4.14856 14.4719 4.05011L15.3116 3.93466C16.6238 3.75423 17.7458 4.87621 17.5653 6.18844L17.4499 7.02813C17.3514 7.74413 17.6469 8.45754 18.2228 8.89422L18.8982 9.40633C19.9537 10.2066 19.9537 11.7934 18.8982 12.5937L18.2228 13.1058C17.6469 13.5425 17.3514 14.2559 17.4499 14.9719L17.5653 15.8116C17.7458 17.1238 16.6238 18.2458 15.3116 18.0653L14.4719 17.9499C13.7559 17.8514 13.0425 18.1469 12.6058 18.7228L12.0937 19.3982C11.2934 20.4537 9.70664 20.4537 8.90633 19.3982L8.39422 18.7228C7.95754 18.1469 7.24413 17.8514 6.52813 17.9499L5.68844 18.0653C4.37621 18.2458 3.25423 17.1238 3.43466 15.8116L3.55011 14.9719C3.64856 14.2559 3.35305 13.5425 2.77715 13.1058L2.10176 12.5937C1.0463 11.7934 1.0463 10.2066 2.10176 9.40633L2.77715 8.89422C3.35305 8.45754 3.64856 7.74413 3.55011 7.02813L3.43466 6.18844C3.25423 4.87621 4.37621 3.75423 5.68844 3.93466L6.52813 4.05011C7.24413 4.14856 7.95754 3.85305 8.39422 3.27715L8.90633 2.60176Z" fill="#4F46E5"/>
<path d="M13.3617 8.13459L9.34883 12.1475L7.63019 10.4288C7.31402 10.1126 6.80329 10.1126 6.48712 10.4288C6.17096 10.745 6.17096 11.2557 6.48712 11.5719L8.78135 13.8661C9.09752 14.1823 9.60825 14.1823 9.92442 13.8661L14.5129 9.27765C14.829 8.96148 14.829 8.45075 14.5129 8.13459C14.1886 7.81842 13.6779 7.81842 13.3617 8.13459Z" fill="#FBFBFB"/>
</svg>
