<svg width="352" height="300" viewBox="0 0 352 300" fill="none" xmlns="http://www.w3.org/2000/svg">
<path fill-rule="evenodd" clip-rule="evenodd" d="M54.7359 104.864C72.8657 104.864 87.5627 90.1674 87.5627 72.0377C87.5627 53.908 72.8657 39.2109 54.7359 39.2109C36.6062 39.2109 21.9092 53.908 21.9092 72.0377C21.9092 90.1674 36.6062 104.864 54.7359 104.864ZM64.9767 54.503C65.4752 52.7324 63.7569 51.6853 62.1876 52.8034L40.2809 68.4096C38.579 69.6221 38.8467 72.0377 40.683 72.0377H46.4516V71.993H57.6945L48.5337 75.2253L44.4951 89.5724C43.9967 91.3431 45.7148 92.3901 47.2843 91.272L69.191 75.6658C70.8929 74.4534 70.6251 72.0377 68.7889 72.0377H60.0409L64.9767 54.503Z" fill="#155EEF"/>
<g clip-path="url(#clip0_2989_5122)">
<path d="M327.036 3.16607L320.738 1.47852L315.431 21.286L310.639 3.40367L304.341 5.09122L309.518 24.4117L296.624 11.5171L292.013 16.1275L306.157 30.2715L288.543 25.5518L286.855 31.8498L306.101 37.0066C305.881 36.0562 305.764 35.066 305.764 34.0485C305.764 26.8465 311.602 21.0081 318.804 21.0081C326.006 21.0081 331.845 26.8465 331.845 34.0485C331.845 35.0594 331.73 36.0436 331.512 36.9884L349.003 41.6749L350.69 35.377L331.368 30.1996L348.983 25.4796L347.296 19.1817L327.974 24.3587L340.869 11.4641L336.259 6.85366L322.311 20.8014L327.036 3.16607Z" fill="#FF4405"/>
<path d="M331.494 37.0617C330.954 39.3445 329.814 41.3953 328.25 43.0384L340.921 55.7097L345.531 51.0992L331.494 37.0617Z" fill="#FF4405"/>
<path d="M328.122 43.1709C326.539 44.7877 324.538 45.9943 322.295 46.6161L326.905 63.8237L333.203 62.1361L328.122 43.1709Z" fill="#FF4405"/>
<path d="M322.059 46.6791C321.019 46.9466 319.928 47.0888 318.803 47.0888C317.599 47.0888 316.432 46.9255 315.325 46.6198L310.71 63.8431L317.008 65.5306L322.059 46.6791Z" fill="#FF4405"/>
<path d="M315.102 46.5563C312.893 45.9036 310.928 44.6817 309.378 43.0602L296.675 55.7625L301.286 60.373L315.102 46.5563Z" fill="#FF4405"/>
<path d="M309.273 42.9479C307.749 41.3162 306.639 39.2928 306.11 37.0452L288.563 41.7471L290.25 48.045L309.273 42.9479Z" fill="#FF4405"/>
</g>
<path d="M235.094 52.8887H209.94L189.69 73.1384V98.2924L209.94 118.542H235.094L255.344 98.2924V73.1384L235.094 52.8887ZM213.421 98.6088L200.448 85.6363L213.421 72.6638C218.325 67.7596 226.393 67.7596 231.297 72.6638L244.27 85.6363L231.297 98.6088C226.393 103.513 218.483 103.513 213.421 98.6088Z" fill="#444CE7"/>
<rect x="110.358" y="134.043" width="14.489" height="14.5896" fill="#079455"/>
<rect x="153.826" y="148.632" width="14.489" height="14.5896" transform="rotate(180 153.826 148.632)" fill="#067647"/>
<path d="M124.849 134.043L139.338 119.453V134.043L124.849 148.632V134.043Z" fill="#ABEFC6"/>
<path d="M139.337 148.632L124.848 163.222L124.848 148.632L139.337 134.042L139.337 148.632Z" fill="#75E0A7"/>
<path d="M110.358 134.043L139.336 104.863V119.453L124.847 134.043H110.358Z" fill="#47CD89"/>
<path d="M153.826 148.632L124.848 177.812L124.848 163.222L139.337 148.632L153.826 148.632Z" fill="#17B26A"/>
<path d="M298.404 132.93C302.387 131.257 306.656 130.396 310.966 130.396V147.038C308.811 147.038 306.677 147.468 304.685 148.305C302.694 149.141 300.884 150.367 299.36 151.912C297.836 153.457 296.627 155.292 295.803 157.311C294.978 159.33 294.553 161.494 294.553 163.679H278.14C278.14 159.308 278.989 154.98 280.638 150.942C282.288 146.904 284.706 143.235 287.754 140.145C290.803 137.054 294.421 134.603 298.404 132.93Z" fill="#155EEF"/>
<path d="M278.14 163.679C278.14 168.049 278.989 172.377 280.638 176.416C282.288 180.454 284.706 184.122 287.754 187.213C290.803 190.304 294.421 192.755 298.404 194.428C302.387 196.1 306.656 196.961 310.966 196.961C315.277 196.961 319.546 196.1 323.529 194.428C327.511 192.755 331.13 190.304 334.178 187.213C337.227 184.122 339.645 180.454 341.294 176.416C342.944 172.377 343.793 168.049 343.793 163.679H327.38C327.38 165.864 326.955 168.028 326.13 170.047C325.305 172.066 324.097 173.901 322.572 175.446C321.048 176.991 319.239 178.217 317.248 179.053C315.256 179.89 313.122 180.32 310.966 180.32C308.811 180.32 306.677 179.89 304.685 179.053C302.694 178.217 300.884 176.991 299.36 175.446C297.836 173.901 296.627 172.066 295.803 170.047C294.978 168.028 294.553 165.864 294.553 163.679H278.14Z" fill="#84ADFF"/>
<path d="M310.966 153.089C305.198 153.089 300.521 157.83 300.521 163.679H321.411C321.411 157.83 316.735 153.089 310.966 153.089Z" fill="#84ADFF"/>
<path d="M310.966 174.269C305.198 174.269 300.521 169.527 300.521 163.679H321.411C321.411 169.527 316.735 174.269 310.966 174.269Z" fill="#155EEF"/>
<path d="M80.4548 270.159C79.6966 260.969 71.997 253.746 62.6106 253.746C52.7216 253.746 44.7051 261.763 44.7051 271.652C44.7051 281.541 52.7216 289.557 62.6106 289.557H89.4688V270.159H80.4548Z" fill="#528BFF"/>
<circle cx="87.9756" cy="267.173" r="22.3819" fill="#7839EE"/>
<path d="M32.8512 162.309C14.7214 162.309 0.0244141 177.21 0.0244141 195.591C0.0244141 213.973 14.7214 228.874 32.8512 228.874C49.1168 228.874 62.6194 216.879 65.224 201.138H64.9884C62.559 210.708 53.9907 217.78 43.7934 217.78C31.707 217.78 21.9089 207.846 21.9089 195.591C21.9089 183.337 31.707 173.403 43.7934 173.403C53.9907 173.403 62.559 180.474 64.9884 190.044H65.224C62.6194 174.303 49.1168 162.309 32.8512 162.309Z" fill="#A4BCFD"/>
<path d="M0.0244141 195.591C0.0244141 177.21 14.7214 162.309 32.8512 162.309C49.1168 162.309 62.6193 174.303 65.224 190.044H43.1039C40.6745 180.474 32.1062 173.403 21.9089 173.403C9.82244 173.403 0.0244141 183.337 0.0244141 195.591Z" fill="#3538CD"/>
<path d="M0.0244141 195.591C0.0244141 213.973 14.7214 228.874 32.8512 228.874C49.1168 228.874 62.6193 216.88 65.224 201.138H43.1039C40.6745 210.708 32.1062 217.78 21.9089 217.78C9.82244 217.78 0.0244141 207.846 0.0244141 195.591Z" fill="#3538CD"/>
<path d="M196.725 234.736C209.674 234.736 220.172 224.238 220.172 211.288C220.172 209.821 220.038 208.384 219.78 206.991C218.387 206.733 216.95 206.599 215.483 206.599C202.533 206.599 192.035 217.097 192.035 230.046C192.035 231.514 192.17 232.95 192.428 234.343C193.821 234.601 195.257 234.736 196.725 234.736Z" fill="#175CD3"/>
<path fill-rule="evenodd" clip-rule="evenodd" d="M192.427 234.344C181.53 232.326 173.276 222.772 173.276 211.289C173.276 198.34 183.774 187.842 196.724 187.842C208.206 187.842 217.761 196.095 219.779 206.993C218.386 206.735 216.95 206.6 215.482 206.6C202.532 206.6 192.035 217.098 192.035 230.048C192.035 231.515 192.169 232.951 192.427 234.344Z" fill="#1570EF"/>
<path fill-rule="evenodd" clip-rule="evenodd" d="M196.723 234.737C209.673 234.737 220.171 224.239 220.171 211.289C220.171 209.821 220.036 208.385 219.778 206.992C230.676 209.01 238.929 218.565 238.929 230.047C238.929 242.997 228.431 253.495 215.482 253.495C203.999 253.495 194.445 245.242 192.427 234.344C193.82 234.602 195.256 234.737 196.723 234.737Z" fill="#2E90FA"/>
<defs>
<clipPath id="clip0_2989_5122">
<rect width="65.6535" height="65.6535" fill="white" transform="translate(286.347)"/>
</clipPath>
</defs>
</svg>
