<svg width="21" height="21" viewBox="0 0 21 21" fill="none" xmlns="http://www.w3.org/2000/svg">
<path d="M9.82834 1.35184C10.1041 0.796793 10.8959 0.796792 11.1717 1.35183L13.4239 5.88484C13.5331 6.10464 13.743 6.2571 13.9857 6.29304L18.9929 7.03427C19.606 7.12503 19.8506 7.87806 19.408 8.31185L15.7928 11.8546C15.6175 12.0264 15.5374 12.2731 15.5782 12.5151L16.4205 17.5062C16.5237 18.1174 15.8831 18.5828 15.3338 18.2958L10.8472 15.9524C10.6297 15.8387 10.3703 15.8387 10.1528 15.9524L5.66623 18.2958C5.11688 18.5828 4.47632 18.1174 4.57946 17.5062L5.42179 12.5151C5.46263 12.2731 5.38248 12.0264 5.20719 11.8546L1.59202 8.31185C1.14937 7.87806 1.39404 7.12503 2.00713 7.03427L7.01426 6.29304C7.25705 6.2571 7.46689 6.10464 7.57609 5.88484L9.82834 1.35184Z" fill="#A78BFA"/>
<g clip-path="url(#clip0_5456_58096)">
<path d="M9.82834 1.35184C10.1041 0.796793 10.8959 0.796792 11.1717 1.35183L13.4239 5.88484C13.5331 6.10464 13.743 6.2571 13.9857 6.29304L18.9929 7.03427C19.606 7.12503 19.8506 7.87806 19.408 8.31185L15.7928 11.8546C15.6175 12.0264 15.5374 12.2731 15.5782 12.5151L16.4205 17.5062C16.5237 18.1174 15.8831 18.5828 15.3338 18.2958L10.8472 15.9524C10.6297 15.8387 10.3703 15.8387 10.1528 15.9524L5.66623 18.2958C5.11688 18.5828 4.47632 18.1174 4.57946 17.5062L5.42179 12.5151C5.46263 12.2731 5.38248 12.0264 5.20719 11.8546L1.59202 8.31185C1.14937 7.87806 1.39404 7.12503 2.00713 7.03427L7.01426 6.29304C7.25705 6.2571 7.46689 6.10464 7.57609 5.88484L9.82834 1.35184Z" fill="white"/>
</g>
<defs>
<clipPath id="clip0_5456_58096">
<rect width="9" height="21" fill="white" transform="translate(12)"/>
</clipPath>
</defs>
</svg>
