<svg width="85" height="20" viewBox="0 0 85 20" fill="none" xmlns="http://www.w3.org/2000/svg">
<path d="M17.99 8.38152C17.6116 7.86159 17.2577 7.25763 16.8824 6.61691C16.4892 5.94539 16.0711 5.30668 15.563 4.64167C15.0875 4.01937 14.5864 3.27527 14.6971 2.5C14.7138 2.38367 14.7497 2.26458 14.7981 2.14686C15.0732 1.47778 16.1552 1.38561 16.6275 1.9336C17.6538 3.12501 18.3641 4.33662 18.9904 5.4072C19.3336 5.99428 19.6579 6.54835 19.9655 6.96963C20.6677 7.93321 21.6724 8.70037 22.7941 9.15667C23.4762 9.43415 23.9212 10.1838 23.6675 10.8751C23.4655 11.4255 22.8848 11.7503 22.3309 11.558C22.3002 11.5474 22.2696 11.5365 22.239 11.5255C20.5533 10.9217 19.0299 9.8076 17.99 8.38152Z" fill="white"/>
<path d="M0.57184 9.14435C0.759852 8.60091 1.29396 8.21896 1.85646 8.33841C2.89683 8.55935 3.23743 8.66727 3.42042 8.71185C4.78164 9.0452 6.01579 9.73869 6.97996 10.7511C8.04094 11.8648 8.5183 13.3365 9.41299 14.5655C9.48837 14.6688 9.56482 14.7714 9.64234 14.8732C9.91289 15.2286 9.99532 15.696 9.84144 16.1153C9.51907 16.9937 8.37736 17.2318 7.787 16.5058C7.48315 16.1322 7.19576 15.7463 6.93593 15.3438C6.3431 14.4248 5.93723 13.3926 5.25032 12.5328C4.65549 11.7889 3.79879 11.3394 2.90127 11.0509C2.71677 10.9915 2.08121 10.8423 1.38596 10.6934C0.693626 10.5451 0.340346 9.81347 0.57184 9.14435Z" fill="white"/>
<path d="M14.4736 10.9514C13.9694 10.2591 13.5437 9.53247 13.1312 8.82855C12.6255 7.96522 12.1024 7.07248 11.4747 6.34276C10.4765 5.18479 9.04483 4.231 7.21976 3.50972C6.29046 3.14186 5.3123 2.85249 4.32242 2.60093C3.61852 2.42205 3.21225 1.67848 3.46273 0.996775C3.67203 0.427187 4.27304 0.100011 4.86147 0.248282C5.95772 0.524512 7.05493 0.847419 8.12664 1.271C10.321 2.14011 12.0714 3.32017 13.3291 4.77795C14.1006 5.67235 14.6805 6.66208 15.2408 7.61953C15.6228 8.27122 16.0164 8.94432 16.4507 9.5394C17.7049 11.2605 19.5239 12.6124 21.5706 13.3472C22.1433 13.5523 22.4802 14.1754 22.2707 14.7465L22.2028 14.9314C21.9906 15.5098 21.3702 15.8377 20.7896 15.6315C20.7726 15.6255 20.7557 15.6195 20.7388 15.6134C18.2361 14.7159 16.0111 13.0602 14.4736 10.9514Z" fill="white"/>
<path d="M8.17278 9.13464C7.63515 8.51098 6.77162 7.96077 5.60663 7.50024C4.76266 7.16654 3.82905 6.90367 2.83874 6.66305C2.13078 6.49103 1.72113 5.74581 1.97211 5.06185C2.18034 4.49442 2.77738 4.16688 3.36504 4.30832C4.46656 4.57342 5.51956 4.86828 6.51272 5.26154C8.04852 5.8691 9.23073 6.64558 10.0272 7.56904C10.5439 8.16875 11.001 8.94982 11.4862 9.77863C11.9011 10.4862 12.3706 11.2886 12.9307 12.0567C14.6883 14.4686 17.2303 16.3612 20.0884 17.3868C20.6667 17.5938 20.9945 18.2254 20.783 18.802L20.7271 18.9545C20.5105 19.5451 19.8724 19.8733 19.2801 19.6612C19.2725 19.6585 19.265 19.6558 19.2574 19.6531C15.9447 18.4646 12.9968 16.2682 10.9552 13.4679C10.3236 12.6019 9.82113 11.7437 9.37722 10.9854C8.94916 10.2573 8.54646 9.56728 8.17278 9.13464Z" fill="white"/>
<path d="M29.1602 15.3951V4.19512H33.2802C33.8882 4.19512 34.4348 4.34446 34.9202 4.64312C35.4055 4.94179 35.7895 5.34446 36.0722 5.85112C36.3602 6.35246 36.5042 6.91246 36.5042 7.53112C36.5042 8.05379 36.4055 8.53112 36.2082 8.96312C36.0162 9.39512 35.7442 9.76312 35.3922 10.0671C35.0455 10.3711 34.6482 10.5898 34.2002 10.7231L36.9042 15.3951H34.9762L32.3522 10.8751H30.8242V15.3951H29.1602ZM30.8242 9.21112H33.1042C33.4242 9.21112 33.7148 9.13112 33.9762 8.97112C34.2428 8.81112 34.4535 8.59779 34.6082 8.33112C34.7628 8.06446 34.8402 7.76312 34.8402 7.42712C34.8402 7.09112 34.7628 6.78979 34.6082 6.52312C34.4535 6.25112 34.2428 6.03779 33.9762 5.88313C33.7148 5.72312 33.4242 5.64312 33.1042 5.64312H30.8242V9.21112Z" fill="white"/>
<path d="M38.0608 7.39513H39.7248V15.3951H38.0608V7.39513ZM38.9088 6.23512C38.6528 6.23512 38.4394 6.15246 38.2688 5.98713C38.0981 5.82179 38.0128 5.61379 38.0128 5.36312C38.0128 5.11779 38.0981 4.91246 38.2688 4.74712C38.4394 4.57646 38.6501 4.49112 38.9008 4.49112C39.1461 4.49112 39.3541 4.57646 39.5248 4.74712C39.6954 4.91246 39.7808 5.11779 39.7808 5.36312C39.7808 5.61379 39.6954 5.82179 39.5248 5.98713C39.3594 6.15246 39.1541 6.23512 38.9088 6.23512Z" fill="white"/>
<path d="M45.6229 9.05912H43.9429L43.9349 15.3951H42.2709L42.2789 9.05912H41.0069V7.39513H42.2789L42.2709 4.88313H43.9349L43.9429 7.39513H45.6229V9.05912Z" fill="white"/>
<path d="M50.1477 15.6031C49.4117 15.6031 48.7397 15.4138 48.1317 15.0351C47.529 14.6565 47.0463 14.1498 46.6837 13.5151C46.3263 12.8751 46.1477 12.1685 46.1477 11.3951C46.1477 10.8085 46.2517 10.2618 46.4597 9.75513C46.6677 9.24312 46.953 8.79512 47.3157 8.41112C47.6837 8.02179 48.1103 7.71779 48.5957 7.49912C49.081 7.28046 49.5983 7.17113 50.1477 7.17113C50.761 7.17113 51.3237 7.29913 51.8357 7.55513C52.3477 7.80579 52.785 8.15512 53.1477 8.60312C53.5103 9.04579 53.777 9.55779 53.9477 10.1391C54.1183 10.7151 54.169 11.3285 54.0997 11.9791H47.9317C48.001 12.3471 48.1343 12.6805 48.3317 12.9791C48.5343 13.2725 48.7903 13.5045 49.0997 13.6751C49.4143 13.8458 49.7637 13.9338 50.1477 13.9391C50.553 13.9391 50.921 13.8378 51.2517 13.6351C51.5877 13.4325 51.8623 13.1525 52.0757 12.7951L53.7637 13.1871C53.4437 13.8965 52.961 14.4778 52.3157 14.9311C51.6703 15.3791 50.9477 15.6031 50.1477 15.6031ZM47.8757 10.7071H52.4197C52.3663 10.3231 52.2303 9.97646 52.0117 9.66712C51.7983 9.35246 51.529 9.10446 51.2037 8.92313C50.8837 8.73646 50.5317 8.64313 50.1477 8.64313C49.769 8.64313 49.417 8.73379 49.0917 8.91512C48.7717 9.09646 48.505 9.34446 48.2917 9.65913C48.0837 9.96846 47.945 10.3178 47.8757 10.7071Z" fill="white"/>
<path d="M57.9652 5.57912L57.7172 7.39513H59.9732L59.7412 9.05912H57.4771L56.5972 15.3951H54.9332L55.8132 9.05912H54.8692L55.1012 7.39513H56.0532L56.3012 5.57912C56.3652 5.14179 56.5305 4.74446 56.7972 4.38712C57.0638 4.02446 57.3918 3.73646 57.7812 3.52312C58.1705 3.30979 58.5865 3.20312 59.0292 3.20312C59.3492 3.20312 59.6505 3.26712 59.9332 3.39512C60.2212 3.52312 60.4665 3.72046 60.6692 3.98712L59.3092 5.16312C59.2612 5.06712 59.1892 4.99512 59.0932 4.94712C58.9972 4.89379 58.8958 4.86712 58.7892 4.86712C58.5918 4.86712 58.4132 4.93646 58.2532 5.07512C58.0932 5.21379 57.9972 5.38179 57.9652 5.57912Z" fill="white"/>
<path d="M60.0435 15.3951L61.7235 3.39512H63.3875L61.7075 15.3951H60.0435Z" fill="white"/>
<path d="M66.7523 15.6031C66.0163 15.6031 65.3709 15.4138 64.8163 15.0351C64.2669 14.6565 63.8563 14.1498 63.5843 13.5151C63.3176 12.8751 63.2376 12.1685 63.3443 11.3951C63.4243 10.8085 63.6029 10.2618 63.8803 9.75513C64.1629 9.24312 64.5149 8.79512 64.9363 8.41112C65.3576 8.02179 65.8243 7.71779 66.3363 7.49912C66.8536 7.28046 67.3869 7.17113 67.9363 7.17113C68.6723 7.17113 69.3149 7.36046 69.8643 7.73912C70.4189 8.11779 70.8323 8.62712 71.1043 9.26712C71.3763 9.90712 71.4563 10.6165 71.3443 11.3951C71.2643 11.9765 71.0829 12.5205 70.8003 13.0271C70.5229 13.5338 70.1736 13.9818 69.7523 14.3711C69.3309 14.7551 68.8643 15.0565 68.3523 15.2751C67.8403 15.4938 67.3069 15.6031 66.7523 15.6031ZM66.9843 13.9391C67.4269 13.9391 67.8403 13.8218 68.2243 13.5871C68.6083 13.3525 68.9309 13.0431 69.1923 12.6591C69.4589 12.2698 69.6216 11.8485 69.6803 11.3951C69.7443 10.9311 69.6989 10.5045 69.5443 10.1151C69.3896 9.72579 69.1523 9.41646 68.8323 9.18713C68.5123 8.95246 68.1363 8.83512 67.7043 8.83512C67.2669 8.83512 66.8536 8.95246 66.4643 9.18713C66.0803 9.42179 65.7576 9.73379 65.4963 10.1231C65.2349 10.5125 65.0723 10.9365 65.0083 11.3951C64.9443 11.8698 64.9896 12.2991 65.1443 12.6831C65.3043 13.0671 65.5443 13.3738 65.8643 13.6031C66.1843 13.8271 66.5576 13.9391 66.9843 13.9391Z" fill="white"/>
<path d="M75.3178 15.3951H73.6618L72.1018 7.39513H73.7338L74.8298 13.0111L77.4938 7.39513H79.1738L80.2538 13.0111L82.9258 7.39513H84.5578L80.7658 15.3951H79.0938L77.9978 9.73912L75.3178 15.3951Z" fill="white"/>
</svg>
