<svg width="56" height="20" viewBox="0 0 56 20" fill="none" xmlns="http://www.w3.org/2000/svg">
<path d="M3.30858 4.23012V16.5899H0V4.23012H3.30858ZM4.96309 4.23012H11.9941C14.2778 4.23012 16.1295 6.07465 16.1295 8.34991C16.1295 10.6256 14.2778 12.4697 11.9941 12.4697H8.27167V16.5899H4.96309V4.23012ZM8.27167 9.1742H11.9941C12.4502 9.1742 12.8205 8.80555 12.8209 8.34991C12.8209 7.89511 12.451 7.52603 11.9941 7.52603H8.27167V9.1742ZM28.537 4.23012V10.6159C28.537 12.0947 29.7405 13.294 31.2253 13.294C32.71 13.294 33.9135 12.0947 33.9135 10.6159V4.23012H37.2221V10.6159C37.2221 13.9152 34.5372 16.5899 31.2253 16.5899C27.9133 16.5899 25.2284 13.9152 25.2284 10.6159V4.23012H28.537Z" fill="white"/>
<path d="M17.3706 9.99807C17.3706 6.81237 19.9626 4.23012 23.1605 4.23012H23.9873V7.52603H23.1605C21.7898 7.52603 20.6792 8.63283 20.6792 9.99807V10.4098C20.6792 13.8227 17.9014 16.5899 14.4754 16.5899H14.0616V13.294H14.4754C16.0742 13.294 17.3706 12.0026 17.3706 10.4098V9.99807Z" fill="white"/>
<path d="M55.8333 4.64227C55.8329 4.97039 55.702 5.28456 55.4693 5.5164C55.2367 5.74823 54.9212 5.87829 54.5923 5.87829C54.2633 5.87829 53.9478 5.74823 53.7156 5.5164C53.4829 5.28456 53.352 4.97039 53.3516 4.64227C53.352 4.31416 53.4829 3.99956 53.7156 3.76772C53.9478 3.53589 54.2633 3.40583 54.5923 3.40625C54.9212 3.40583 55.2367 3.53589 55.4693 3.76772C55.702 3.99956 55.8329 4.31416 55.8333 4.64227ZM40.7747 16.5899L42.3537 10.004L43.5276 13.9658C44.2273 16.3289 47.5874 16.3289 48.2876 13.9658L49.4611 10.0044L51.0396 16.5899H54.4415L51.9589 6.23428C51.3685 3.7711 47.8847 3.67989 47.1651 6.10844L45.9076 10.3549L44.6492 6.10886C43.93 3.68031 40.4462 3.77153 39.8554 6.23428L37.3733 16.5899H40.7747Z" fill="white"/>
</svg>
