<svg width="43" height="20" viewBox="0 0 43 20" fill="none" xmlns="http://www.w3.org/2000/svg">
<path d="M10.0881 1.79688C8.42851 1.79688 6.83629 2.45863 5.66278 3.63693L1.8331 7.48226C0.659585 8.66012 0.000434796 10.2576 0 11.9237C0 15.3947 2.80182 18.2069 6.25801 18.2069C7.91763 18.2069 9.50941 17.5452 10.6834 16.3669L21.0515 5.95787C21.7863 5.21959 22.8507 4.91784 23.8616 5.16089C24.8725 5.40351 25.6851 6.15657 26.0073 7.14877L28.4435 4.70305C27.2947 2.89213 25.3038 1.79601 23.165 1.79688C21.5054 1.79688 19.9132 2.45863 18.7397 3.63693L8.37155 14.0464C7.20413 15.2181 5.3119 15.2181 4.14447 14.0459C2.97748 12.8742 2.97748 10.9745 4.14491 9.80277L7.97459 5.95743C8.70939 5.21915 9.77377 4.9174 10.7847 5.16045C11.7956 5.40351 12.6082 6.15657 12.9304 7.14877L15.3665 4.70348C14.2178 2.89256 12.2269 1.79601 10.0881 1.79688Z" fill="white"/>
<path d="M21.4485 14.0459C20.7137 14.7842 19.6498 15.086 18.6389 14.8434C17.6275 14.6003 16.8149 13.8477 16.4927 12.8555L14.057 15.3008C15.2057 17.1117 17.1962 18.2078 19.335 18.2069C20.9946 18.2069 22.5864 17.5452 23.7603 16.3669L34.1284 5.95743C35.2959 4.78566 37.1881 4.78566 38.3555 5.95743C39.5225 7.12964 39.5225 9.02926 38.3551 10.201L34.5254 14.0464C33.7902 14.7847 32.7262 15.0864 31.7153 14.8434C30.704 14.6003 29.8918 13.8472 29.5696 12.855L27.1335 15.3008C28.2822 17.1117 30.2731 18.2082 32.4114 18.2069C34.0715 18.2069 35.6633 17.5452 36.8372 16.3669L40.6669 12.5215C41.8404 11.3432 42.4996 9.74581 42.5 8.07967C42.5 4.60913 39.6982 1.79688 36.242 1.79688C34.5824 1.79688 32.9902 2.45863 31.8166 3.63693L21.4485 14.0459Z" fill="white"/>
</svg>
