<svg width="21" height="21" viewBox="0 0 21 21" fill="none" xmlns="http://www.w3.org/2000/svg">
<path d="M8.90633 2.10176C9.70664 1.0463 11.2934 1.0463 12.0937 2.10176L12.6058 2.77715C13.0425 3.35305 13.7559 3.64856 14.4719 3.55011L15.3116 3.43466C16.6238 3.25423 17.7458 4.37621 17.5653 5.68844L17.4499 6.52813C17.3514 7.24413 17.6469 7.95754 18.2228 8.39422L18.8982 8.90633C19.9537 9.70664 19.9537 11.2934 18.8982 12.0937L18.2228 12.6058C17.6469 13.0425 17.3514 13.7559 17.4499 14.4719L17.5653 15.3116C17.7458 16.6238 16.6238 17.7458 15.3116 17.5653L14.4719 17.4499C13.7559 17.3514 13.0425 17.6469 12.6058 18.2228L12.0937 18.8982C11.2934 19.9537 9.70664 19.9537 8.90633 18.8982L8.39422 18.2228C7.95754 17.6469 7.24413 17.3514 6.52813 17.4499L5.68844 17.5653C4.37621 17.7458 3.25423 16.6238 3.43466 15.3116L3.55011 14.4719C3.64856 13.7559 3.35305 13.0425 2.77715 12.6058L2.10176 12.0937C1.0463 11.2934 1.0463 9.70664 2.10176 8.90633L2.77715 8.39422C3.35305 7.95754 3.64856 7.24413 3.55011 6.52813L3.43466 5.68844C3.25423 4.37621 4.37621 3.25423 5.68844 3.43466L6.52813 3.55011C7.24413 3.64856 7.95754 3.35305 8.39422 2.77715L8.90633 2.10176Z" fill="#FF6C6C"/>
<path d="M13.3617 7.63556L9.34883 11.6484L7.63019 9.92979C7.31402 9.61362 6.80329 9.61362 6.48712 9.92979C6.17096 10.246 6.17096 10.7567 6.48712 11.0729L8.78135 13.3671C9.09752 13.6832 9.60825 13.6832 9.92442 13.3671L14.5129 8.77862C14.829 8.46246 14.829 7.95173 14.5129 7.63556C14.1886 7.3194 13.6779 7.3194 13.3617 7.63556Z" fill="#0E1422"/>
</svg>
