<svg width="42" height="42" viewBox="0 0 42 42" fill="none" xmlns="http://www.w3.org/2000/svg">
<path fill-rule="evenodd" clip-rule="evenodd" d="M21 42C32.598 42 42 32.598 42 21C42 9.40203 32.598 0 21 0C9.402 0 0 9.40203 0 21C0 32.598 9.402 42 21 42ZM27.5513 9.78269C27.8702 8.64996 26.7709 7.98014 25.767 8.69537L11.7528 18.6791C10.664 19.4547 10.8353 21 12.01 21H15.7003V20.9714H22.8926L17.0323 23.0392L14.4487 32.2174C14.1299 33.3501 15.229 34.0199 16.233 33.3046L30.2472 23.321C31.336 22.5454 31.1646 21 29.99 21H24.3937L27.5513 9.78269Z" fill="#155EEF"/>
</svg>
