<svg width="42" height="42" viewBox="0 0 42 42" fill="none" xmlns="http://www.w3.org/2000/svg">
<path d="M15 30C23.2843 30 30 23.2843 30 15C30 14.0611 29.9137 13.1424 29.7487 12.2513C28.8576 12.0863 27.9389 12 27 12C18.7157 12 12 18.7157 12 27C12 27.9389 12.0863 28.8576 12.2513 29.7487C13.1424 29.9137 14.0611 30 15 30Z" fill="#175CD3"/>
<path fill-rule="evenodd" clip-rule="evenodd" d="M12.2513 29.7487C5.27976 28.4576 0 22.3454 0 15C0 6.71573 6.71573 0 15 0C22.3454 0 28.4576 5.27976 29.7487 12.2513C28.8576 12.0863 27.9389 12 27 12C18.7157 12 12 18.7157 12 27C12 27.9389 12.0863 28.8576 12.2513 29.7487Z" fill="#1570EF"/>
<path fill-rule="evenodd" clip-rule="evenodd" d="M14.9997 29.9987C23.284 29.9987 29.9997 23.283 29.9997 14.9987C29.9997 14.0598 29.9134 13.1411 29.7484 12.25C36.7199 13.5411 41.9997 19.6533 41.9997 26.9987C41.9997 35.283 35.284 41.9987 26.9997 41.9987C19.6543 41.9987 13.5421 36.719 12.251 29.7474C13.1421 29.9125 14.0608 29.9987 14.9997 29.9987Z" fill="#2E90FA"/>
</svg>
