<svg width="42" height="42" viewBox="0 0 42 42" fill="none" xmlns="http://www.w3.org/2000/svg">
<path d="M20.7123 0C9.27318 0 0 9.40202 0 21C0 32.598 9.27318 42 20.7123 42C30.9753 42 39.4948 34.432 41.1383 24.5H40.9896C39.4568 30.5383 34.0505 35 27.6164 35C19.9904 35 13.8082 28.732 13.8082 21C13.8082 13.268 19.9904 7 27.6164 7C34.0505 7 39.4568 11.4617 40.9896 17.5H41.1383C39.4948 7.568 30.9753 0 20.7123 0Z" fill="#A4BCFD"/>
<path d="M0 21C0 9.40202 9.27322 0 20.7123 0C30.9753 0 39.4948 7.568 41.1383 17.5H27.1814C25.6486 11.4617 20.2423 7 13.8082 7C6.18215 7 0 13.268 0 21Z" fill="#3538CD"/>
<path d="M0 21C0 32.598 9.27322 42 20.7123 42C30.9753 42 39.4948 34.432 41.1383 24.5H27.1814C25.6486 30.5383 20.2423 35 13.8082 35C6.18215 35 0 28.732 0 21Z" fill="#3538CD"/>
</svg>
