<svg width="56" height="46" viewBox="0 0 56 46" fill="none" xmlns="http://www.w3.org/2000/svg">
<path d="M41.0552 19.1247C40.1919 17.9384 39.3843 16.5603 38.5278 15.0983C37.6308 13.566 36.6766 12.1087 35.5173 10.5912C34.4324 9.17129 33.2889 7.47341 33.5416 5.70441C33.5795 5.43897 33.6616 5.16723 33.772 4.89862C34.3997 3.37192 36.8686 3.16161 37.9462 4.41202C40.2881 7.13054 41.9089 9.89517 43.3378 12.338C44.1211 13.6776 44.861 14.9419 45.563 15.9031C47.1651 18.1018 49.4577 19.8523 52.0172 20.8935C53.5736 21.5266 54.5888 23.2371 54.0099 24.8145C53.549 26.0704 52.224 26.8115 50.9603 26.3728C50.8902 26.3485 50.8203 26.3238 50.7506 26.2987C46.9042 24.9208 43.428 22.3787 41.0552 19.1247Z" fill="url(#paint0_linear_3439_1041)"/>
<path d="M1.30347 20.874C1.73248 19.634 2.95119 18.7625 4.23469 19.0351C6.6086 19.5392 7.38576 19.7854 7.80332 19.8871C10.9093 20.6478 13.7254 22.2302 15.9254 24.5404C18.3463 27.0816 19.4356 30.4395 21.477 33.2439C21.649 33.4797 21.8235 33.7137 22.0004 33.946C22.6177 34.7569 22.8058 35.8235 22.4547 36.7803C21.7191 38.7846 19.114 39.3277 17.7669 37.6712C17.0736 36.8187 16.4178 35.9383 15.8249 35.0199C14.4722 32.9229 13.5461 30.5676 11.9788 28.6058C10.6215 26.9082 8.66667 25.8826 6.61873 25.2242C6.19773 25.0888 4.74754 24.7484 3.16111 24.4086C1.58136 24.0703 0.775255 22.4008 1.30347 20.874Z" fill="#A78BFA"/>
<path d="M33.0259 24.9887C31.8755 23.4091 30.9041 21.751 29.963 20.1448C28.809 18.1749 27.6155 16.1379 26.1831 14.4728C23.9055 11.8306 20.6387 9.65423 16.4743 8.00842C14.3539 7.16904 12.1219 6.50877 9.86321 5.93477C8.25708 5.5266 7.33003 3.82992 7.9016 2.27442C8.37915 0.974747 9.75052 0.228204 11.0932 0.566525C13.5946 1.19682 16.0982 1.93362 18.5436 2.90015C23.5507 4.88326 27.5446 7.57591 30.4144 10.9022C32.1748 12.9431 33.4982 15.2014 34.7766 17.3861C35.6481 18.8731 36.5462 20.409 37.5372 21.7668C40.3991 25.694 44.5498 28.7788 49.2197 30.4553C50.5265 30.9234 51.2954 32.3451 50.8172 33.6483L50.6624 34.0701C50.1781 35.3901 48.7626 36.1382 47.4376 35.6678C47.399 35.6541 47.3604 35.6403 47.3218 35.6264C41.6113 33.5784 36.5342 29.8005 33.0259 24.9887Z" fill="#06B6D4"/>
<path d="M18.6525 20.8373C17.4257 19.4143 15.4553 18.1588 12.7971 17.108C10.8714 16.3465 8.74104 15.7467 6.48137 15.1977C4.86597 14.8052 3.93123 13.1047 4.50393 11.5441C4.97905 10.2493 6.34137 9.50197 7.68227 9.82469C10.1957 10.4296 12.5984 11.1024 14.8646 11.9997C18.369 13.3861 21.0665 15.1578 22.8838 17.265C24.0629 18.6334 25.106 20.4156 26.2129 22.3067C27.1597 23.9213 28.231 25.7521 29.5091 27.5049C33.5196 33.0083 39.3197 37.3268 45.8413 39.667C47.1609 40.1392 47.9088 41.5803 47.4263 42.8962L47.2987 43.244C46.8045 44.5918 45.3484 45.3407 43.9969 44.8567C43.9797 44.8505 43.9624 44.8443 43.9452 44.8381C36.3864 42.1262 29.6598 37.1145 25.0013 30.7248C23.5602 28.7489 22.4137 26.7905 21.4008 25.0603C20.424 23.399 19.5052 21.8245 18.6525 20.8373Z" fill="url(#paint1_linear_3439_1041)"/>
<defs>
<linearGradient id="paint0_linear_3439_1041" x1="44.3015" y1="2.28174" x2="44.3015" y2="27.0059" gradientUnits="userSpaceOnUse">
<stop stop-color="#7D76FF"/>
<stop offset="1" stop-color="#2F27B1"/>
</linearGradient>
<linearGradient id="paint1_linear_3439_1041" x1="25.8725" y1="9.28162" x2="25.8725" y2="45.6355" gradientUnits="userSpaceOnUse">
<stop stop-color="#7D76FF"/>
<stop offset="1" stop-color="#2F27B1"/>
</linearGradient>
</defs>
</svg>
