<svg width="42" height="42" viewBox="0 0 42 42" fill="none" xmlns="http://www.w3.org/2000/svg">
<g clip-path="url(#clip0_5249_56072)">
<path d="M26.0307 2.02488L22.0018 0.945312L18.6065 13.6166L15.5413 2.17687L11.5122 3.25644L14.8241 15.6162L6.57503 7.36719L3.62562 10.3166L12.6738 19.3648L1.40573 16.3456L0.326172 20.3745L12.6379 23.6734C12.497 23.0655 12.4224 22.432 12.4224 21.7811C12.4224 17.1738 16.1573 13.4388 20.7646 13.4388C25.3719 13.4388 29.1068 17.1738 29.1068 21.7811C29.1068 22.4278 29.0332 23.0574 28.894 23.6618L40.0831 26.6598L41.1626 22.6309L28.8019 19.3189L40.0707 16.2994L38.9911 12.2704L26.6309 15.5823L34.8799 7.33333L31.9305 4.38391L23.0078 13.3066L26.0307 2.02488Z" fill="#FF4405"/>
<path d="M28.8822 23.7087C28.5368 25.169 27.8075 26.481 26.8069 27.5321L34.9129 35.6382L37.8623 32.6888L28.8822 23.7087Z" fill="#FF4405"/>
<path d="M26.7251 27.6168C25.7123 28.6512 24.4326 29.4231 22.9974 29.8208L25.947 40.8289L29.976 39.7493L26.7251 27.6168Z" fill="#FF4405"/>
<path d="M22.8469 29.8611C22.1811 30.0323 21.4831 30.1232 20.7639 30.1232C19.9934 30.1232 19.2472 30.0188 18.5388 29.8232L15.5865 40.8413L19.6155 41.9208L22.8469 29.8611Z" fill="#FF4405"/>
<path d="M18.3964 29.7826C16.9831 29.365 15.7261 28.5833 14.7341 27.546L6.60813 35.672L9.55755 38.6214L18.3964 29.7826Z" fill="#FF4405"/>
<path d="M14.6671 27.4742C13.6921 26.4303 12.9819 25.1359 12.6439 23.6981L1.41821 26.706L2.49777 30.7349L14.6671 27.4742Z" fill="#FF4405"/>
</g>
<defs>
<clipPath id="clip0_5249_56072">
<rect width="42" height="42" fill="white"/>
</clipPath>
</defs>
</svg>
